<?xml version="1.0" encoding="utf-8" standalone="no"?>
<!DOCTYPE svg PUBLIC "-//W3C//DTD SVG 1.1//EN"
  "http://www.w3.org/Graphics/SVG/1.1/DTD/svg11.dtd">
<svg xmlns:xlink="http://www.w3.org/1999/xlink" width="711.83419pt" height="315.27875pt" viewBox="0 0 711.83419 315.27875" xmlns="http://www.w3.org/2000/svg" version="1.1">
 <metadata>
  <rdf:RDF xmlns:dc="http://purl.org/dc/elements/1.1/" xmlns:cc="http://creativecommons.org/ns#" xmlns:rdf="http://www.w3.org/1999/02/22-rdf-syntax-ns#">
   <cc:Work>
    <dc:type rdf:resource="http://purl.org/dc/dcmitype/StillImage"/>
    <dc:date>2026-05-23T16:40:23.142866</dc:date>
    <dc:format>image/svg+xml</dc:format>
    <dc:creator>
     <cc:Agent>
      <dc:title>Matplotlib v3.10.3, https://matplotlib.org/</dc:title>
     </cc:Agent>
    </dc:creator>
   </cc:Work>
  </rdf:RDF>
 </metadata>
 <defs>
  <style type="text/css">*{stroke-linejoin: round; stroke-linecap: butt}</style>
 </defs>
 <g id="figure_1">
  <g id="patch_1">
   <path d="M 0 315.27875 
L 711.83419 315.27875 
L 711.83419 0 
L 0 0 
z
" style="fill: #ffffff"/>
  </g>
  <g id="axes_1">
   <g id="patch_2">
    <path d="M 45.478125 277.3225 
L 695.09044 277.3225 
L 695.09044 22.5225 
L 45.478125 22.5225 
z
" style="fill: #ffffff"/>
   </g>
   <g id="patch_3">
    <path d="M 71.462618 277.3225 
L 240.36182 277.3225 
L 240.36182 22.5225 
L 71.462618 22.5225 
z
" clip-path="url(#p37a49d7e2e)" style="fill: #008000; opacity: 0.07; stroke: #008000; stroke-linejoin: miter"/>
   </g>
   <g id="matplotlib.axis_1">
    <g id="xtick_1">
     <g id="line2d_1">
      <path d="M 45.478125 277.3225 
L 45.478125 22.5225 
" clip-path="url(#p37a49d7e2e)" style="fill: none; stroke: #b0b0b0; stroke-opacity: 0.3; stroke-width: 0.8; stroke-linecap: square"/>
     </g>
     <g id="line2d_2">
      <defs>
       <path id="m55795b6cae" d="M 0 0 
L 0 3.5 
" style="stroke: #000000; stroke-width: 0.8"/>
      </defs>
      <g>
       <use xlink:href="#m55795b6cae" x="45.478125" y="277.3225" style="stroke: #000000; stroke-width: 0.8"/>
      </g>
     </g>
     <g id="text_1">
      <!-- 0 -->
      <g transform="translate(42.296875 291.920937) scale(0.1 -0.1)">
       <defs>
        <path id="DejaVuSans-30" d="M 2034 4250 
Q 1547 4250 1301 3770 
Q 1056 3291 1056 2328 
Q 1056 1369 1301 889 
Q 1547 409 2034 409 
Q 2525 409 2770 889 
Q 3016 1369 3016 2328 
Q 3016 3291 2770 3770 
Q 2525 4250 2034 4250 
z
M 2034 4750 
Q 2819 4750 3233 4129 
Q 3647 3509 3647 2328 
Q 3647 1150 3233 529 
Q 2819 -91 2034 -91 
Q 1250 -91 836 529 
Q 422 1150 422 2328 
Q 422 3509 836 4129 
Q 1250 4750 2034 4750 
z
" transform="scale(0.015625)"/>
       </defs>
       <use xlink:href="#DejaVuSans-30"/>
      </g>
     </g>
    </g>
    <g id="xtick_2">
     <g id="line2d_3">
      <path d="M 175.400588 277.3225 
L 175.400588 22.5225 
" clip-path="url(#p37a49d7e2e)" style="fill: none; stroke: #b0b0b0; stroke-opacity: 0.3; stroke-width: 0.8; stroke-linecap: square"/>
     </g>
     <g id="line2d_4">
      <g>
       <use xlink:href="#m55795b6cae" x="175.400588" y="277.3225" style="stroke: #000000; stroke-width: 0.8"/>
      </g>
     </g>
     <g id="text_2">
      <!-- 100 -->
      <g transform="translate(165.856838 291.920937) scale(0.1 -0.1)">
       <defs>
        <path id="DejaVuSans-31" d="M 794 531 
L 1825 531 
L 1825 4091 
L 703 3866 
L 703 4441 
L 1819 4666 
L 2450 4666 
L 2450 531 
L 3481 531 
L 3481 0 
L 794 0 
L 794 531 
z
" transform="scale(0.015625)"/>
       </defs>
       <use xlink:href="#DejaVuSans-31"/>
       <use xlink:href="#DejaVuSans-30" transform="translate(63.623047 0)"/>
       <use xlink:href="#DejaVuSans-30" transform="translate(127.246094 0)"/>
      </g>
     </g>
    </g>
    <g id="xtick_3">
     <g id="line2d_5">
      <path d="M 305.323051 277.3225 
L 305.323051 22.5225 
" clip-path="url(#p37a49d7e2e)" style="fill: none; stroke: #b0b0b0; stroke-opacity: 0.3; stroke-width: 0.8; stroke-linecap: square"/>
     </g>
     <g id="line2d_6">
      <g>
       <use xlink:href="#m55795b6cae" x="305.323051" y="277.3225" style="stroke: #000000; stroke-width: 0.8"/>
      </g>
     </g>
     <g id="text_3">
      <!-- 200 -->
      <g transform="translate(295.779301 291.920937) scale(0.1 -0.1)">
       <defs>
        <path id="DejaVuSans-32" d="M 1228 531 
L 3431 531 
L 3431 0 
L 469 0 
L 469 531 
Q 828 903 1448 1529 
Q 2069 2156 2228 2338 
Q 2531 2678 2651 2914 
Q 2772 3150 2772 3378 
Q 2772 3750 2511 3984 
Q 2250 4219 1831 4219 
Q 1534 4219 1204 4116 
Q 875 4013 500 3803 
L 500 4441 
Q 881 4594 1212 4672 
Q 1544 4750 1819 4750 
Q 2544 4750 2975 4387 
Q 3406 4025 3406 3419 
Q 3406 3131 3298 2873 
Q 3191 2616 2906 2266 
Q 2828 2175 2409 1742 
Q 1991 1309 1228 531 
z
" transform="scale(0.015625)"/>
       </defs>
       <use xlink:href="#DejaVuSans-32"/>
       <use xlink:href="#DejaVuSans-30" transform="translate(63.623047 0)"/>
       <use xlink:href="#DejaVuSans-30" transform="translate(127.246094 0)"/>
      </g>
     </g>
    </g>
    <g id="xtick_4">
     <g id="line2d_7">
      <path d="M 435.245514 277.3225 
L 435.245514 22.5225 
" clip-path="url(#p37a49d7e2e)" style="fill: none; stroke: #b0b0b0; stroke-opacity: 0.3; stroke-width: 0.8; stroke-linecap: square"/>
     </g>
     <g id="line2d_8">
      <g>
       <use xlink:href="#m55795b6cae" x="435.245514" y="277.3225" style="stroke: #000000; stroke-width: 0.8"/>
      </g>
     </g>
     <g id="text_4">
      <!-- 300 -->
      <g transform="translate(425.701764 291.920937) scale(0.1 -0.1)">
       <defs>
        <path id="DejaVuSans-33" d="M 2597 2516 
Q 3050 2419 3304 2112 
Q 3559 1806 3559 1356 
Q 3559 666 3084 287 
Q 2609 -91 1734 -91 
Q 1441 -91 1130 -33 
Q 819 25 488 141 
L 488 750 
Q 750 597 1062 519 
Q 1375 441 1716 441 
Q 2309 441 2620 675 
Q 2931 909 2931 1356 
Q 2931 1769 2642 2001 
Q 2353 2234 1838 2234 
L 1294 2234 
L 1294 2753 
L 1863 2753 
Q 2328 2753 2575 2939 
Q 2822 3125 2822 3475 
Q 2822 3834 2567 4026 
Q 2313 4219 1838 4219 
Q 1578 4219 1281 4162 
Q 984 4106 628 3988 
L 628 4550 
Q 988 4650 1302 4700 
Q 1616 4750 1894 4750 
Q 2613 4750 3031 4423 
Q 3450 4097 3450 3541 
Q 3450 3153 3228 2886 
Q 3006 2619 2597 2516 
z
" transform="scale(0.015625)"/>
       </defs>
       <use xlink:href="#DejaVuSans-33"/>
       <use xlink:href="#DejaVuSans-30" transform="translate(63.623047 0)"/>
       <use xlink:href="#DejaVuSans-30" transform="translate(127.246094 0)"/>
      </g>
     </g>
    </g>
    <g id="xtick_5">
     <g id="line2d_9">
      <path d="M 565.167977 277.3225 
L 565.167977 22.5225 
" clip-path="url(#p37a49d7e2e)" style="fill: none; stroke: #b0b0b0; stroke-opacity: 0.3; stroke-width: 0.8; stroke-linecap: square"/>
     </g>
     <g id="line2d_10">
      <g>
       <use xlink:href="#m55795b6cae" x="565.167977" y="277.3225" style="stroke: #000000; stroke-width: 0.8"/>
      </g>
     </g>
     <g id="text_5">
      <!-- 400 -->
      <g transform="translate(555.624227 291.920937) scale(0.1 -0.1)">
       <defs>
        <path id="DejaVuSans-34" d="M 2419 4116 
L 825 1625 
L 2419 1625 
L 2419 4116 
z
M 2253 4666 
L 3047 4666 
L 3047 1625 
L 3713 1625 
L 3713 1100 
L 3047 1100 
L 3047 0 
L 2419 0 
L 2419 1100 
L 313 1100 
L 313 1709 
L 2253 4666 
z
" transform="scale(0.015625)"/>
       </defs>
       <use xlink:href="#DejaVuSans-34"/>
       <use xlink:href="#DejaVuSans-30" transform="translate(63.623047 0)"/>
       <use xlink:href="#DejaVuSans-30" transform="translate(127.246094 0)"/>
      </g>
     </g>
    </g>
    <g id="xtick_6">
     <g id="line2d_11">
      <path d="M 695.09044 277.3225 
L 695.09044 22.5225 
" clip-path="url(#p37a49d7e2e)" style="fill: none; stroke: #b0b0b0; stroke-opacity: 0.3; stroke-width: 0.8; stroke-linecap: square"/>
     </g>
     <g id="line2d_12">
      <g>
       <use xlink:href="#m55795b6cae" x="695.09044" y="277.3225" style="stroke: #000000; stroke-width: 0.8"/>
      </g>
     </g>
     <g id="text_6">
      <!-- 500 -->
      <g transform="translate(685.54669 291.920937) scale(0.1 -0.1)">
       <defs>
        <path id="DejaVuSans-35" d="M 691 4666 
L 3169 4666 
L 3169 4134 
L 1269 4134 
L 1269 2991 
Q 1406 3038 1543 3061 
Q 1681 3084 1819 3084 
Q 2600 3084 3056 2656 
Q 3513 2228 3513 1497 
Q 3513 744 3044 326 
Q 2575 -91 1722 -91 
Q 1428 -91 1123 -41 
Q 819 9 494 109 
L 494 744 
Q 775 591 1075 516 
Q 1375 441 1709 441 
Q 2250 441 2565 725 
Q 2881 1009 2881 1497 
Q 2881 1984 2565 2268 
Q 2250 2553 1709 2553 
Q 1456 2553 1204 2497 
Q 953 2441 691 2322 
L 691 4666 
z
" transform="scale(0.015625)"/>
       </defs>
       <use xlink:href="#DejaVuSans-35"/>
       <use xlink:href="#DejaVuSans-30" transform="translate(63.623047 0)"/>
       <use xlink:href="#DejaVuSans-30" transform="translate(127.246094 0)"/>
      </g>
     </g>
    </g>
    <g id="text_7">
     <!-- Frequência (Hz) -->
     <g transform="translate(331.085845 305.999062) scale(0.1 -0.1)">
      <defs>
       <path id="DejaVuSans-46" d="M 628 4666 
L 3309 4666 
L 3309 4134 
L 1259 4134 
L 1259 2759 
L 3109 2759 
L 3109 2228 
L 1259 2228 
L 1259 0 
L 628 0 
L 628 4666 
z
" transform="scale(0.015625)"/>
       <path id="DejaVuSans-72" d="M 2631 2963 
Q 2534 3019 2420 3045 
Q 2306 3072 2169 3072 
Q 1681 3072 1420 2755 
Q 1159 2438 1159 1844 
L 1159 0 
L 581 0 
L 581 3500 
L 1159 3500 
L 1159 2956 
Q 1341 3275 1631 3429 
Q 1922 3584 2338 3584 
Q 2397 3584 2469 3576 
Q 2541 3569 2628 3553 
L 2631 2963 
z
" transform="scale(0.015625)"/>
       <path id="DejaVuSans-65" d="M 3597 1894 
L 3597 1613 
L 953 1613 
Q 991 1019 1311 708 
Q 1631 397 2203 397 
Q 2534 397 2845 478 
Q 3156 559 3463 722 
L 3463 178 
Q 3153 47 2828 -22 
Q 2503 -91 2169 -91 
Q 1331 -91 842 396 
Q 353 884 353 1716 
Q 353 2575 817 3079 
Q 1281 3584 2069 3584 
Q 2775 3584 3186 3129 
Q 3597 2675 3597 1894 
z
M 3022 2063 
Q 3016 2534 2758 2815 
Q 2500 3097 2075 3097 
Q 1594 3097 1305 2825 
Q 1016 2553 972 2059 
L 3022 2063 
z
" transform="scale(0.015625)"/>
       <path id="DejaVuSans-71" d="M 947 1747 
Q 947 1113 1208 752 
Q 1469 391 1925 391 
Q 2381 391 2643 752 
Q 2906 1113 2906 1747 
Q 2906 2381 2643 2742 
Q 2381 3103 1925 3103 
Q 1469 3103 1208 2742 
Q 947 2381 947 1747 
z
M 2906 525 
Q 2725 213 2448 61 
Q 2172 -91 1784 -91 
Q 1150 -91 751 415 
Q 353 922 353 1747 
Q 353 2572 751 3078 
Q 1150 3584 1784 3584 
Q 2172 3584 2448 3432 
Q 2725 3281 2906 2969 
L 2906 3500 
L 3481 3500 
L 3481 -1331 
L 2906 -1331 
L 2906 525 
z
" transform="scale(0.015625)"/>
       <path id="DejaVuSans-75" d="M 544 1381 
L 544 3500 
L 1119 3500 
L 1119 1403 
Q 1119 906 1312 657 
Q 1506 409 1894 409 
Q 2359 409 2629 706 
Q 2900 1003 2900 1516 
L 2900 3500 
L 3475 3500 
L 3475 0 
L 2900 0 
L 2900 538 
Q 2691 219 2414 64 
Q 2138 -91 1772 -91 
Q 1169 -91 856 284 
Q 544 659 544 1381 
z
M 1991 3584 
L 1991 3584 
z
" transform="scale(0.015625)"/>
       <path id="DejaVuSans-ea" d="M 3597 1894 
L 3597 1613 
L 953 1613 
Q 991 1019 1311 708 
Q 1631 397 2203 397 
Q 2534 397 2845 478 
Q 3156 559 3463 722 
L 3463 178 
Q 3153 47 2828 -22 
Q 2503 -91 2169 -91 
Q 1331 -91 842 396 
Q 353 884 353 1716 
Q 353 2575 817 3079 
Q 1281 3584 2069 3584 
Q 2775 3584 3186 3129 
Q 3597 2675 3597 1894 
z
M 3022 2063 
Q 3016 2534 2758 2815 
Q 2500 3097 2075 3097 
Q 1594 3097 1305 2825 
Q 1016 2553 972 2059 
L 3022 2063 
z
M 1801 5119 
L 2263 5119 
L 3029 3944 
L 2595 3944 
L 2032 4709 
L 1470 3944 
L 1035 3944 
L 1801 5119 
z
" transform="scale(0.015625)"/>
       <path id="DejaVuSans-6e" d="M 3513 2113 
L 3513 0 
L 2938 0 
L 2938 2094 
Q 2938 2591 2744 2837 
Q 2550 3084 2163 3084 
Q 1697 3084 1428 2787 
Q 1159 2491 1159 1978 
L 1159 0 
L 581 0 
L 581 3500 
L 1159 3500 
L 1159 2956 
Q 1366 3272 1645 3428 
Q 1925 3584 2291 3584 
Q 2894 3584 3203 3211 
Q 3513 2838 3513 2113 
z
" transform="scale(0.015625)"/>
       <path id="DejaVuSans-63" d="M 3122 3366 
L 3122 2828 
Q 2878 2963 2633 3030 
Q 2388 3097 2138 3097 
Q 1578 3097 1268 2742 
Q 959 2388 959 1747 
Q 959 1106 1268 751 
Q 1578 397 2138 397 
Q 2388 397 2633 464 
Q 2878 531 3122 666 
L 3122 134 
Q 2881 22 2623 -34 
Q 2366 -91 2075 -91 
Q 1284 -91 818 406 
Q 353 903 353 1747 
Q 353 2603 823 3093 
Q 1294 3584 2113 3584 
Q 2378 3584 2631 3529 
Q 2884 3475 3122 3366 
z
" transform="scale(0.015625)"/>
       <path id="DejaVuSans-69" d="M 603 3500 
L 1178 3500 
L 1178 0 
L 603 0 
L 603 3500 
z
M 603 4863 
L 1178 4863 
L 1178 4134 
L 603 4134 
L 603 4863 
z
" transform="scale(0.015625)"/>
       <path id="DejaVuSans-61" d="M 2194 1759 
Q 1497 1759 1228 1600 
Q 959 1441 959 1056 
Q 959 750 1161 570 
Q 1363 391 1709 391 
Q 2188 391 2477 730 
Q 2766 1069 2766 1631 
L 2766 1759 
L 2194 1759 
z
M 3341 1997 
L 3341 0 
L 2766 0 
L 2766 531 
Q 2569 213 2275 61 
Q 1981 -91 1556 -91 
Q 1019 -91 701 211 
Q 384 513 384 1019 
Q 384 1609 779 1909 
Q 1175 2209 1959 2209 
L 2766 2209 
L 2766 2266 
Q 2766 2663 2505 2880 
Q 2244 3097 1772 3097 
Q 1472 3097 1187 3025 
Q 903 2953 641 2809 
L 641 3341 
Q 956 3463 1253 3523 
Q 1550 3584 1831 3584 
Q 2591 3584 2966 3190 
Q 3341 2797 3341 1997 
z
" transform="scale(0.015625)"/>
       <path id="DejaVuSans-20" transform="scale(0.015625)"/>
       <path id="DejaVuSans-28" d="M 1984 4856 
Q 1566 4138 1362 3434 
Q 1159 2731 1159 2009 
Q 1159 1288 1364 580 
Q 1569 -128 1984 -844 
L 1484 -844 
Q 1016 -109 783 600 
Q 550 1309 550 2009 
Q 550 2706 781 3412 
Q 1013 4119 1484 4856 
L 1984 4856 
z
" transform="scale(0.015625)"/>
       <path id="DejaVuSans-48" d="M 628 4666 
L 1259 4666 
L 1259 2753 
L 3553 2753 
L 3553 4666 
L 4184 4666 
L 4184 0 
L 3553 0 
L 3553 2222 
L 1259 2222 
L 1259 0 
L 628 0 
L 628 4666 
z
" transform="scale(0.015625)"/>
       <path id="DejaVuSans-7a" d="M 353 3500 
L 3084 3500 
L 3084 2975 
L 922 459 
L 3084 459 
L 3084 0 
L 275 0 
L 275 525 
L 2438 3041 
L 353 3041 
L 353 3500 
z
" transform="scale(0.015625)"/>
       <path id="DejaVuSans-29" d="M 513 4856 
L 1013 4856 
Q 1481 4119 1714 3412 
Q 1947 2706 1947 2009 
Q 1947 1309 1714 600 
Q 1481 -109 1013 -844 
L 513 -844 
Q 928 -128 1133 580 
Q 1338 1288 1338 2009 
Q 1338 2731 1133 3434 
Q 928 4138 513 4856 
z
" transform="scale(0.015625)"/>
      </defs>
      <use xlink:href="#DejaVuSans-46"/>
      <use xlink:href="#DejaVuSans-72" transform="translate(50.269531 0)"/>
      <use xlink:href="#DejaVuSans-65" transform="translate(89.132812 0)"/>
      <use xlink:href="#DejaVuSans-71" transform="translate(150.65625 0)"/>
      <use xlink:href="#DejaVuSans-75" transform="translate(214.132812 0)"/>
      <use xlink:href="#DejaVuSans-ea" transform="translate(277.511719 0)"/>
      <use xlink:href="#DejaVuSans-6e" transform="translate(339.035156 0)"/>
      <use xlink:href="#DejaVuSans-63" transform="translate(402.414062 0)"/>
      <use xlink:href="#DejaVuSans-69" transform="translate(457.394531 0)"/>
      <use xlink:href="#DejaVuSans-61" transform="translate(485.177734 0)"/>
      <use xlink:href="#DejaVuSans-20" transform="translate(546.457031 0)"/>
      <use xlink:href="#DejaVuSans-28" transform="translate(578.244141 0)"/>
      <use xlink:href="#DejaVuSans-48" transform="translate(617.257812 0)"/>
      <use xlink:href="#DejaVuSans-7a" transform="translate(692.453125 0)"/>
      <use xlink:href="#DejaVuSans-29" transform="translate(744.943359 0)"/>
     </g>
    </g>
   </g>
   <g id="matplotlib.axis_2">
    <g id="ytick_1">
     <g id="line2d_13">
      <path d="M 45.478125 255.907632 
L 695.09044 255.907632 
" clip-path="url(#p37a49d7e2e)" style="fill: none; stroke: #b0b0b0; stroke-opacity: 0.3; stroke-width: 0.8; stroke-linecap: square"/>
     </g>
     <g id="line2d_14">
      <defs>
       <path id="m039fbec379" d="M 0 0 
L -3.5 0 
" style="stroke: #000000; stroke-width: 0.8"/>
      </defs>
      <g>
       <use xlink:href="#m039fbec379" x="45.478125" y="255.907632" style="stroke: #000000; stroke-width: 0.8"/>
      </g>
     </g>
     <g id="text_8">
      <!-- $\mathdefault{10^{3}}$ -->
      <g transform="translate(20.878125 259.70685) scale(0.1 -0.1)">
       <use xlink:href="#DejaVuSans-31" transform="translate(0 0.765625)"/>
       <use xlink:href="#DejaVuSans-30" transform="translate(63.623047 0.765625)"/>
       <use xlink:href="#DejaVuSans-33" transform="translate(128.203125 39.046875) scale(0.7)"/>
      </g>
     </g>
    </g>
    <g id="ytick_2">
     <g id="line2d_15">
      <path d="M 45.478125 167.9231 
L 695.09044 167.9231 
" clip-path="url(#p37a49d7e2e)" style="fill: none; stroke: #b0b0b0; stroke-opacity: 0.3; stroke-width: 0.8; stroke-linecap: square"/>
     </g>
     <g id="line2d_16">
      <g>
       <use xlink:href="#m039fbec379" x="45.478125" y="167.9231" style="stroke: #000000; stroke-width: 0.8"/>
      </g>
     </g>
     <g id="text_9">
      <!-- $\mathdefault{10^{4}}$ -->
      <g transform="translate(20.878125 171.722319) scale(0.1 -0.1)">
       <use xlink:href="#DejaVuSans-31" transform="translate(0 0.684375)"/>
       <use xlink:href="#DejaVuSans-30" transform="translate(63.623047 0.684375)"/>
       <use xlink:href="#DejaVuSans-34" transform="translate(128.203125 38.965625) scale(0.7)"/>
      </g>
     </g>
    </g>
    <g id="ytick_3">
     <g id="line2d_17">
      <path d="M 45.478125 79.938569 
L 695.09044 79.938569 
" clip-path="url(#p37a49d7e2e)" style="fill: none; stroke: #b0b0b0; stroke-opacity: 0.3; stroke-width: 0.8; stroke-linecap: square"/>
     </g>
     <g id="line2d_18">
      <g>
       <use xlink:href="#m039fbec379" x="45.478125" y="79.938569" style="stroke: #000000; stroke-width: 0.8"/>
      </g>
     </g>
     <g id="text_10">
      <!-- $\mathdefault{10^{5}}$ -->
      <g transform="translate(20.878125 83.737788) scale(0.1 -0.1)">
       <use xlink:href="#DejaVuSans-31" transform="translate(0 0.684375)"/>
       <use xlink:href="#DejaVuSans-30" transform="translate(63.623047 0.684375)"/>
       <use xlink:href="#DejaVuSans-35" transform="translate(128.203125 38.965625) scale(0.7)"/>
      </g>
     </g>
    </g>
    <g id="ytick_4">
     <g id="line2d_19">
      <path d="M 45.478125 275.42689 
L 695.09044 275.42689 
" clip-path="url(#p37a49d7e2e)" style="fill: none; stroke: #b0b0b0; stroke-opacity: 0.3; stroke-width: 0.8; stroke-linecap: square"/>
     </g>
     <g id="line2d_20">
      <defs>
       <path id="m01dfb3d947" d="M 0 0 
L -2 0 
" style="stroke: #000000; stroke-width: 0.6"/>
      </defs>
      <g>
       <use xlink:href="#m01dfb3d947" x="45.478125" y="275.42689" style="stroke: #000000; stroke-width: 0.6"/>
      </g>
     </g>
    </g>
    <g id="ytick_5">
     <g id="line2d_21">
      <path d="M 45.478125 269.536608 
L 695.09044 269.536608 
" clip-path="url(#p37a49d7e2e)" style="fill: none; stroke: #b0b0b0; stroke-opacity: 0.3; stroke-width: 0.8; stroke-linecap: square"/>
     </g>
     <g id="line2d_22">
      <g>
       <use xlink:href="#m01dfb3d947" x="45.478125" y="269.536608" style="stroke: #000000; stroke-width: 0.6"/>
      </g>
     </g>
    </g>
    <g id="ytick_6">
     <g id="line2d_23">
      <path d="M 45.478125 264.434214 
L 695.09044 264.434214 
" clip-path="url(#p37a49d7e2e)" style="fill: none; stroke: #b0b0b0; stroke-opacity: 0.3; stroke-width: 0.8; stroke-linecap: square"/>
     </g>
     <g id="line2d_24">
      <g>
       <use xlink:href="#m01dfb3d947" x="45.478125" y="264.434214" style="stroke: #000000; stroke-width: 0.6"/>
      </g>
     </g>
    </g>
    <g id="ytick_7">
     <g id="line2d_25">
      <path d="M 45.478125 259.933583 
L 695.09044 259.933583 
" clip-path="url(#p37a49d7e2e)" style="fill: none; stroke: #b0b0b0; stroke-opacity: 0.3; stroke-width: 0.8; stroke-linecap: square"/>
     </g>
     <g id="line2d_26">
      <g>
       <use xlink:href="#m01dfb3d947" x="45.478125" y="259.933583" style="stroke: #000000; stroke-width: 0.6"/>
      </g>
     </g>
    </g>
    <g id="ytick_8">
     <g id="line2d_27">
      <path d="M 45.478125 229.421649 
L 695.09044 229.421649 
" clip-path="url(#p37a49d7e2e)" style="fill: none; stroke: #b0b0b0; stroke-opacity: 0.3; stroke-width: 0.8; stroke-linecap: square"/>
     </g>
     <g id="line2d_28">
      <g>
       <use xlink:href="#m01dfb3d947" x="45.478125" y="229.421649" style="stroke: #000000; stroke-width: 0.6"/>
      </g>
     </g>
    </g>
    <g id="ytick_9">
     <g id="line2d_29">
      <path d="M 45.478125 213.928342 
L 695.09044 213.928342 
" clip-path="url(#p37a49d7e2e)" style="fill: none; stroke: #b0b0b0; stroke-opacity: 0.3; stroke-width: 0.8; stroke-linecap: square"/>
     </g>
     <g id="line2d_30">
      <g>
       <use xlink:href="#m01dfb3d947" x="45.478125" y="213.928342" style="stroke: #000000; stroke-width: 0.6"/>
      </g>
     </g>
    </g>
    <g id="ytick_10">
     <g id="line2d_31">
      <path d="M 45.478125 202.935666 
L 695.09044 202.935666 
" clip-path="url(#p37a49d7e2e)" style="fill: none; stroke: #b0b0b0; stroke-opacity: 0.3; stroke-width: 0.8; stroke-linecap: square"/>
     </g>
     <g id="line2d_32">
      <g>
       <use xlink:href="#m01dfb3d947" x="45.478125" y="202.935666" style="stroke: #000000; stroke-width: 0.6"/>
      </g>
     </g>
    </g>
    <g id="ytick_11">
     <g id="line2d_33">
      <path d="M 45.478125 194.409083 
L 695.09044 194.409083 
" clip-path="url(#p37a49d7e2e)" style="fill: none; stroke: #b0b0b0; stroke-opacity: 0.3; stroke-width: 0.8; stroke-linecap: square"/>
     </g>
     <g id="line2d_34">
      <g>
       <use xlink:href="#m01dfb3d947" x="45.478125" y="194.409083" style="stroke: #000000; stroke-width: 0.6"/>
      </g>
     </g>
    </g>
    <g id="ytick_12">
     <g id="line2d_35">
      <path d="M 45.478125 187.442359 
L 695.09044 187.442359 
" clip-path="url(#p37a49d7e2e)" style="fill: none; stroke: #b0b0b0; stroke-opacity: 0.3; stroke-width: 0.8; stroke-linecap: square"/>
     </g>
     <g id="line2d_36">
      <g>
       <use xlink:href="#m01dfb3d947" x="45.478125" y="187.442359" style="stroke: #000000; stroke-width: 0.6"/>
      </g>
     </g>
    </g>
    <g id="ytick_13">
     <g id="line2d_37">
      <path d="M 45.478125 181.552077 
L 695.09044 181.552077 
" clip-path="url(#p37a49d7e2e)" style="fill: none; stroke: #b0b0b0; stroke-opacity: 0.3; stroke-width: 0.8; stroke-linecap: square"/>
     </g>
     <g id="line2d_38">
      <g>
       <use xlink:href="#m01dfb3d947" x="45.478125" y="181.552077" style="stroke: #000000; stroke-width: 0.6"/>
      </g>
     </g>
    </g>
    <g id="ytick_14">
     <g id="line2d_39">
      <path d="M 45.478125 176.449682 
L 695.09044 176.449682 
" clip-path="url(#p37a49d7e2e)" style="fill: none; stroke: #b0b0b0; stroke-opacity: 0.3; stroke-width: 0.8; stroke-linecap: square"/>
     </g>
     <g id="line2d_40">
      <g>
       <use xlink:href="#m01dfb3d947" x="45.478125" y="176.449682" style="stroke: #000000; stroke-width: 0.6"/>
      </g>
     </g>
    </g>
    <g id="ytick_15">
     <g id="line2d_41">
      <path d="M 45.478125 171.949052 
L 695.09044 171.949052 
" clip-path="url(#p37a49d7e2e)" style="fill: none; stroke: #b0b0b0; stroke-opacity: 0.3; stroke-width: 0.8; stroke-linecap: square"/>
     </g>
     <g id="line2d_42">
      <g>
       <use xlink:href="#m01dfb3d947" x="45.478125" y="171.949052" style="stroke: #000000; stroke-width: 0.6"/>
      </g>
     </g>
    </g>
    <g id="ytick_16">
     <g id="line2d_43">
      <path d="M 45.478125 141.437117 
L 695.09044 141.437117 
" clip-path="url(#p37a49d7e2e)" style="fill: none; stroke: #b0b0b0; stroke-opacity: 0.3; stroke-width: 0.8; stroke-linecap: square"/>
     </g>
     <g id="line2d_44">
      <g>
       <use xlink:href="#m01dfb3d947" x="45.478125" y="141.437117" style="stroke: #000000; stroke-width: 0.6"/>
      </g>
     </g>
    </g>
    <g id="ytick_17">
     <g id="line2d_45">
      <path d="M 45.478125 125.94381 
L 695.09044 125.94381 
" clip-path="url(#p37a49d7e2e)" style="fill: none; stroke: #b0b0b0; stroke-opacity: 0.3; stroke-width: 0.8; stroke-linecap: square"/>
     </g>
     <g id="line2d_46">
      <g>
       <use xlink:href="#m01dfb3d947" x="45.478125" y="125.94381" style="stroke: #000000; stroke-width: 0.6"/>
      </g>
     </g>
    </g>
    <g id="ytick_18">
     <g id="line2d_47">
      <path d="M 45.478125 114.951134 
L 695.09044 114.951134 
" clip-path="url(#p37a49d7e2e)" style="fill: none; stroke: #b0b0b0; stroke-opacity: 0.3; stroke-width: 0.8; stroke-linecap: square"/>
     </g>
     <g id="line2d_48">
      <g>
       <use xlink:href="#m01dfb3d947" x="45.478125" y="114.951134" style="stroke: #000000; stroke-width: 0.6"/>
      </g>
     </g>
    </g>
    <g id="ytick_19">
     <g id="line2d_49">
      <path d="M 45.478125 106.424552 
L 695.09044 106.424552 
" clip-path="url(#p37a49d7e2e)" style="fill: none; stroke: #b0b0b0; stroke-opacity: 0.3; stroke-width: 0.8; stroke-linecap: square"/>
     </g>
     <g id="line2d_50">
      <g>
       <use xlink:href="#m01dfb3d947" x="45.478125" y="106.424552" style="stroke: #000000; stroke-width: 0.6"/>
      </g>
     </g>
    </g>
    <g id="ytick_20">
     <g id="line2d_51">
      <path d="M 45.478125 99.457827 
L 695.09044 99.457827 
" clip-path="url(#p37a49d7e2e)" style="fill: none; stroke: #b0b0b0; stroke-opacity: 0.3; stroke-width: 0.8; stroke-linecap: square"/>
     </g>
     <g id="line2d_52">
      <g>
       <use xlink:href="#m01dfb3d947" x="45.478125" y="99.457827" style="stroke: #000000; stroke-width: 0.6"/>
      </g>
     </g>
    </g>
    <g id="ytick_21">
     <g id="line2d_53">
      <path d="M 45.478125 93.567545 
L 695.09044 93.567545 
" clip-path="url(#p37a49d7e2e)" style="fill: none; stroke: #b0b0b0; stroke-opacity: 0.3; stroke-width: 0.8; stroke-linecap: square"/>
     </g>
     <g id="line2d_54">
      <g>
       <use xlink:href="#m01dfb3d947" x="45.478125" y="93.567545" style="stroke: #000000; stroke-width: 0.6"/>
      </g>
     </g>
    </g>
    <g id="ytick_22">
     <g id="line2d_55">
      <path d="M 45.478125 88.465151 
L 695.09044 88.465151 
" clip-path="url(#p37a49d7e2e)" style="fill: none; stroke: #b0b0b0; stroke-opacity: 0.3; stroke-width: 0.8; stroke-linecap: square"/>
     </g>
     <g id="line2d_56">
      <g>
       <use xlink:href="#m01dfb3d947" x="45.478125" y="88.465151" style="stroke: #000000; stroke-width: 0.6"/>
      </g>
     </g>
    </g>
    <g id="ytick_23">
     <g id="line2d_57">
      <path d="M 45.478125 83.96452 
L 695.09044 83.96452 
" clip-path="url(#p37a49d7e2e)" style="fill: none; stroke: #b0b0b0; stroke-opacity: 0.3; stroke-width: 0.8; stroke-linecap: square"/>
     </g>
     <g id="line2d_58">
      <g>
       <use xlink:href="#m01dfb3d947" x="45.478125" y="83.96452" style="stroke: #000000; stroke-width: 0.6"/>
      </g>
     </g>
    </g>
    <g id="ytick_24">
     <g id="line2d_59">
      <path d="M 45.478125 53.452586 
L 695.09044 53.452586 
" clip-path="url(#p37a49d7e2e)" style="fill: none; stroke: #b0b0b0; stroke-opacity: 0.3; stroke-width: 0.8; stroke-linecap: square"/>
     </g>
     <g id="line2d_60">
      <g>
       <use xlink:href="#m01dfb3d947" x="45.478125" y="53.452586" style="stroke: #000000; stroke-width: 0.6"/>
      </g>
     </g>
    </g>
    <g id="ytick_25">
     <g id="line2d_61">
      <path d="M 45.478125 37.959279 
L 695.09044 37.959279 
" clip-path="url(#p37a49d7e2e)" style="fill: none; stroke: #b0b0b0; stroke-opacity: 0.3; stroke-width: 0.8; stroke-linecap: square"/>
     </g>
     <g id="line2d_62">
      <g>
       <use xlink:href="#m01dfb3d947" x="45.478125" y="37.959279" style="stroke: #000000; stroke-width: 0.6"/>
      </g>
     </g>
    </g>
    <g id="ytick_26">
     <g id="line2d_63">
      <path d="M 45.478125 26.966603 
L 695.09044 26.966603 
" clip-path="url(#p37a49d7e2e)" style="fill: none; stroke: #b0b0b0; stroke-opacity: 0.3; stroke-width: 0.8; stroke-linecap: square"/>
     </g>
     <g id="line2d_64">
      <g>
       <use xlink:href="#m01dfb3d947" x="45.478125" y="26.966603" style="stroke: #000000; stroke-width: 0.6"/>
      </g>
     </g>
    </g>
    <g id="text_11">
     <!-- PSD (log) -->
     <g transform="translate(14.798438 173.074844) rotate(-90) scale(0.1 -0.1)">
      <defs>
       <path id="DejaVuSans-50" d="M 1259 4147 
L 1259 2394 
L 2053 2394 
Q 2494 2394 2734 2622 
Q 2975 2850 2975 3272 
Q 2975 3691 2734 3919 
Q 2494 4147 2053 4147 
L 1259 4147 
z
M 628 4666 
L 2053 4666 
Q 2838 4666 3239 4311 
Q 3641 3956 3641 3272 
Q 3641 2581 3239 2228 
Q 2838 1875 2053 1875 
L 1259 1875 
L 1259 0 
L 628 0 
L 628 4666 
z
" transform="scale(0.015625)"/>
       <path id="DejaVuSans-53" d="M 3425 4513 
L 3425 3897 
Q 3066 4069 2747 4153 
Q 2428 4238 2131 4238 
Q 1616 4238 1336 4038 
Q 1056 3838 1056 3469 
Q 1056 3159 1242 3001 
Q 1428 2844 1947 2747 
L 2328 2669 
Q 3034 2534 3370 2195 
Q 3706 1856 3706 1288 
Q 3706 609 3251 259 
Q 2797 -91 1919 -91 
Q 1588 -91 1214 -16 
Q 841 59 441 206 
L 441 856 
Q 825 641 1194 531 
Q 1563 422 1919 422 
Q 2459 422 2753 634 
Q 3047 847 3047 1241 
Q 3047 1584 2836 1778 
Q 2625 1972 2144 2069 
L 1759 2144 
Q 1053 2284 737 2584 
Q 422 2884 422 3419 
Q 422 4038 858 4394 
Q 1294 4750 2059 4750 
Q 2388 4750 2728 4690 
Q 3069 4631 3425 4513 
z
" transform="scale(0.015625)"/>
       <path id="DejaVuSans-44" d="M 1259 4147 
L 1259 519 
L 2022 519 
Q 2988 519 3436 956 
Q 3884 1394 3884 2338 
Q 3884 3275 3436 3711 
Q 2988 4147 2022 4147 
L 1259 4147 
z
M 628 4666 
L 1925 4666 
Q 3281 4666 3915 4102 
Q 4550 3538 4550 2338 
Q 4550 1131 3912 565 
Q 3275 0 1925 0 
L 628 0 
L 628 4666 
z
" transform="scale(0.015625)"/>
       <path id="DejaVuSans-6c" d="M 603 4863 
L 1178 4863 
L 1178 0 
L 603 0 
L 603 4863 
z
" transform="scale(0.015625)"/>
       <path id="DejaVuSans-6f" d="M 1959 3097 
Q 1497 3097 1228 2736 
Q 959 2375 959 1747 
Q 959 1119 1226 758 
Q 1494 397 1959 397 
Q 2419 397 2687 759 
Q 2956 1122 2956 1747 
Q 2956 2369 2687 2733 
Q 2419 3097 1959 3097 
z
M 1959 3584 
Q 2709 3584 3137 3096 
Q 3566 2609 3566 1747 
Q 3566 888 3137 398 
Q 2709 -91 1959 -91 
Q 1206 -91 779 398 
Q 353 888 353 1747 
Q 353 2609 779 3096 
Q 1206 3584 1959 3584 
z
" transform="scale(0.015625)"/>
       <path id="DejaVuSans-67" d="M 2906 1791 
Q 2906 2416 2648 2759 
Q 2391 3103 1925 3103 
Q 1463 3103 1205 2759 
Q 947 2416 947 1791 
Q 947 1169 1205 825 
Q 1463 481 1925 481 
Q 2391 481 2648 825 
Q 2906 1169 2906 1791 
z
M 3481 434 
Q 3481 -459 3084 -895 
Q 2688 -1331 1869 -1331 
Q 1566 -1331 1297 -1286 
Q 1028 -1241 775 -1147 
L 775 -588 
Q 1028 -725 1275 -790 
Q 1522 -856 1778 -856 
Q 2344 -856 2625 -561 
Q 2906 -266 2906 331 
L 2906 616 
Q 2728 306 2450 153 
Q 2172 0 1784 0 
Q 1141 0 747 490 
Q 353 981 353 1791 
Q 353 2603 747 3093 
Q 1141 3584 1784 3584 
Q 2172 3584 2450 3431 
Q 2728 3278 2906 2969 
L 2906 3500 
L 3481 3500 
L 3481 434 
z
" transform="scale(0.015625)"/>
      </defs>
      <use xlink:href="#DejaVuSans-50"/>
      <use xlink:href="#DejaVuSans-53" transform="translate(60.302734 0)"/>
      <use xlink:href="#DejaVuSans-44" transform="translate(123.779297 0)"/>
      <use xlink:href="#DejaVuSans-20" transform="translate(200.78125 0)"/>
      <use xlink:href="#DejaVuSans-28" transform="translate(232.568359 0)"/>
      <use xlink:href="#DejaVuSans-6c" transform="translate(271.582031 0)"/>
      <use xlink:href="#DejaVuSans-6f" transform="translate(299.365234 0)"/>
      <use xlink:href="#DejaVuSans-67" transform="translate(360.546875 0)"/>
      <use xlink:href="#DejaVuSans-29" transform="translate(424.023438 0)"/>
     </g>
    </g>
   </g>
   <g id="line2d_65">
    <path d="M 45.478125 161.861213 
L 46.746899 118.120654 
L 48.015673 147.774949 
L 49.284447 150.076073 
L 50.553221 162.314001 
L 51.821995 168.942162 
L 53.090769 173.971915 
L 54.359543 179.547322 
L 55.628317 159.1328 
L 56.897091 162.924969 
L 58.165866 170.933998 
L 59.43464 169.716553 
L 60.703414 185.667135 
L 61.972188 191.310471 
L 63.240962 177.381279 
L 64.509736 169.551044 
L 65.77851 177.606021 
L 67.047284 182.296271 
L 68.316058 180.70635 
L 69.584832 186.87984 
L 70.853606 191.158722 
L 72.12238 173.424753 
L 73.391154 167.76298 
L 74.659928 167.300798 
L 75.928702 181.477757 
L 77.197476 186.325898 
L 78.46625 185.799093 
L 79.735024 178.376992 
L 81.003798 182.299204 
L 82.272573 179.815478 
L 83.541347 168.996873 
L 84.810121 166.820306 
L 86.078895 193.506229 
L 87.347669 186.487103 
L 88.616443 169.338092 
L 89.885217 176.050279 
L 91.153991 180.320102 
L 92.422765 170.847215 
L 93.691539 173.17978 
L 94.960313 172.261361 
L 97.497861 184.527387 
L 98.766635 167.112343 
L 100.035409 189.699003 
L 101.304183 184.462414 
L 102.572957 177.119383 
L 103.841731 180.529054 
L 105.110506 193.224904 
L 106.37928 178.615342 
L 107.648054 188.384215 
L 108.916828 180.102427 
L 110.185602 179.680628 
L 111.454376 181.573575 
L 112.72315 180.880753 
L 113.991924 183.25878 
L 115.260698 183.257822 
L 116.529472 176.385999 
L 117.798246 174.557094 
L 119.06702 182.270083 
L 120.335794 194.307644 
L 121.604568 188.387223 
L 122.873342 175.001768 
L 124.142116 180.424203 
L 125.41089 192.18573 
L 126.679664 182.680407 
L 127.948438 167.398673 
L 129.217213 185.693577 
L 130.485987 188.463404 
L 131.754761 184.466164 
L 133.023535 192.093556 
L 134.292309 188.008687 
L 135.561083 190.044324 
L 136.829857 198.690144 
L 138.098631 192.720809 
L 139.367405 182.553192 
L 140.636179 196.413247 
L 141.904953 194.167448 
L 143.173727 178.179515 
L 144.442501 188.480084 
L 145.711275 181.409329 
L 146.980049 202.821013 
L 148.248823 211.207383 
L 149.517597 201.880651 
L 150.786371 205.317281 
L 152.055145 210.424537 
L 153.32392 198.010033 
L 154.592694 196.973505 
L 155.861468 179.960868 
L 157.130242 172.741962 
L 158.399016 187.03504 
L 159.66779 190.548182 
L 160.936564 183.377597 
L 162.205338 180.890451 
L 163.474112 193.017803 
L 164.742886 198.611488 
L 166.01166 198.942515 
L 167.280434 200.012597 
L 168.549208 203.702138 
L 169.817982 208.540791 
L 171.086756 182.140664 
L 172.35553 184.478387 
L 173.624304 196.002018 
L 174.893078 197.759441 
L 176.161852 201.770965 
L 177.430627 212.611466 
L 178.699401 196.668585 
L 181.236949 204.52686 
L 182.505723 197.946429 
L 183.774497 195.661865 
L 185.043271 191.254304 
L 186.312045 189.355258 
L 187.580819 193.108229 
L 188.849593 195.937265 
L 190.118367 203.394652 
L 191.387141 226.041632 
L 192.655915 189.257325 
L 193.924689 187.976548 
L 195.193463 203.295311 
L 196.462237 207.840157 
L 197.731011 200.208115 
L 198.999785 211.035449 
L 200.268559 204.698225 
L 201.537334 212.577111 
L 202.806108 192.993294 
L 204.074882 195.823796 
L 205.343656 209.06565 
L 206.61243 197.08083 
L 207.881204 195.561575 
L 209.149978 201.827732 
L 210.418752 211.964006 
L 211.687526 224.025642 
L 212.9563 205.643753 
L 214.225074 201.530588 
L 215.493848 205.634601 
L 216.762622 207.486176 
L 218.031396 207.49258 
L 219.30017 212.620435 
L 220.568944 204.030211 
L 221.837718 203.532101 
L 223.106492 210.982876 
L 224.375267 206.716177 
L 225.644041 203.940192 
L 226.912815 196.704284 
L 228.181589 199.675455 
L 229.450363 209.250712 
L 230.719137 198.495086 
L 231.987911 201.54347 
L 233.256685 211.627106 
L 235.794233 218.85085 
L 237.063007 211.714075 
L 238.331781 224.854815 
L 239.600555 201.442371 
L 240.869329 210.310124 
L 242.138103 222.733974 
L 243.406877 215.707571 
L 244.675651 215.52919 
L 245.944425 208.859203 
L 247.213199 222.957236 
L 248.481974 222.687169 
L 249.750748 222.537095 
L 251.019522 210.796804 
L 252.288296 204.076661 
L 253.55707 216.673667 
L 256.094618 203.590421 
L 257.363392 197.381471 
L 258.632166 211.895141 
L 259.90094 217.153836 
L 261.169714 203.502826 
L 262.438488 199.680472 
L 263.707262 212.367694 
L 264.976036 216.580226 
L 266.24481 202.214832 
L 267.513584 210.997982 
L 268.782358 237.03998 
L 271.319906 219.504796 
L 272.588681 224.109513 
L 273.857455 226.353636 
L 275.126229 223.020188 
L 276.395003 209.234616 
L 277.663777 202.653654 
L 278.932551 211.320539 
L 280.201325 226.351528 
L 281.470099 215.031889 
L 282.738873 212.901797 
L 284.007647 224.131008 
L 285.276421 231.198127 
L 286.545195 215.093238 
L 287.813969 212.152297 
L 289.082743 209.736853 
L 290.351517 206.697881 
L 291.620291 221.485021 
L 292.889065 231.477787 
L 294.157839 218.967801 
L 295.426613 225.16295 
L 296.695388 225.342199 
L 297.964162 211.068616 
L 299.232936 210.339947 
L 300.50171 224.904239 
L 301.770484 222.922017 
L 303.039258 231.460825 
L 304.308032 227.316926 
L 306.84558 219.577461 
L 308.114354 234.058707 
L 310.651902 212.227374 
L 313.18945 214.296467 
L 314.458224 222.139695 
L 315.726998 227.704913 
L 316.995772 225.738065 
L 318.264546 214.348701 
L 319.53332 227.669984 
L 320.802095 231.802834 
L 322.070869 223.390914 
L 323.339643 218.314545 
L 324.608417 209.399766 
L 325.877191 226.944454 
L 327.145965 225.426616 
L 328.414739 222.194016 
L 329.683513 220.472522 
L 330.952287 231.853785 
L 332.221061 241.028182 
L 333.489835 226.249948 
L 334.758609 221.810359 
L 336.027383 241.173958 
L 337.296157 242.246972 
L 338.564931 241.141131 
L 339.833705 229.127283 
L 341.102479 239.383518 
L 342.371253 225.835476 
L 343.640028 225.643746 
L 344.908802 236.624394 
L 346.177576 225.187442 
L 347.44635 211.924065 
L 348.715124 225.617238 
L 349.983898 226.019382 
L 351.252672 222.84897 
L 352.521446 239.844513 
L 353.79022 222.920343 
L 355.058994 224.715673 
L 356.327768 221.996772 
L 357.596542 221.068758 
L 358.865316 222.305637 
L 360.13409 225.856476 
L 361.402864 228.10649 
L 362.671638 228.45152 
L 363.940412 221.09643 
L 365.209186 230.41878 
L 366.47796 221.65474 
L 367.746735 224.509887 
L 369.015509 242.542765 
L 370.284283 232.299911 
L 371.553057 225.208338 
L 372.821831 232.710297 
L 374.090605 229.093224 
L 375.359379 234.516311 
L 376.628153 228.815473 
L 377.896927 221.980565 
L 379.165701 230.49095 
L 380.434475 226.498422 
L 381.703249 229.725601 
L 382.972023 233.80472 
L 384.240797 243.99219 
L 385.509571 228.255317 
L 386.778345 231.959815 
L 388.047119 230.797118 
L 389.315893 227.662266 
L 390.584667 232.058525 
L 391.853442 230.649877 
L 393.122216 224.256132 
L 394.39099 219.772967 
L 395.659764 211.625017 
L 396.928538 230.459359 
L 398.197312 214.207135 
L 399.466086 218.123018 
L 400.73486 228.324763 
L 402.003634 219.551099 
L 403.272408 220.044249 
L 404.541182 221.335549 
L 405.809956 218.448375 
L 407.07873 221.131569 
L 408.347504 224.193202 
L 409.616278 234.026578 
L 410.885052 223.28069 
L 412.153826 225.062871 
L 413.4226 229.148281 
L 414.691374 224.113455 
L 415.960149 232.129624 
L 417.228923 218.936205 
L 418.497697 219.39493 
L 419.766471 235.850027 
L 421.035245 224.18745 
L 422.304019 221.946618 
L 423.572793 239.475487 
L 424.841567 239.61345 
L 426.110341 247.354427 
L 427.379115 222.293889 
L 428.647889 219.455399 
L 429.916663 215.85581 
L 431.185437 225.030879 
L 432.454211 238.630814 
L 433.722985 232.615314 
L 434.991759 234.586912 
L 436.260533 217.209856 
L 437.529307 225.436737 
L 438.798081 246.63999 
L 440.066856 227.832189 
L 441.33563 223.177987 
L 442.604404 229.853488 
L 443.873178 238.199837 
L 445.141952 222.113795 
L 446.410726 229.462816 
L 447.6795 232.841888 
L 448.948274 233.471912 
L 450.217048 238.445766 
L 451.485822 239.430933 
L 452.754596 247.754496 
L 454.02337 243.295096 
L 455.292144 234.236906 
L 456.560918 239.024483 
L 457.829692 242.918187 
L 459.098466 236.433874 
L 460.36724 238.884123 
L 461.636014 240.678581 
L 462.904789 238.077765 
L 464.173563 228.929094 
L 465.442337 221.701635 
L 466.711111 228.441834 
L 467.979885 222.069645 
L 469.248659 215.045516 
L 470.517433 216.633444 
L 471.786207 234.999525 
L 473.054981 229.855895 
L 474.323755 226.656105 
L 475.592529 213.400725 
L 476.861303 225.756338 
L 478.130077 232.401902 
L 479.398851 242.583368 
L 480.667625 240.44851 
L 481.936399 242.753018 
L 483.205173 230.375463 
L 484.473947 224.162851 
L 485.742721 223.113005 
L 487.011496 227.527761 
L 488.28027 232.360155 
L 489.549044 233.577881 
L 490.817818 223.175998 
L 492.086592 233.245578 
L 493.355366 227.872764 
L 494.62414 230.033141 
L 495.892914 230.163054 
L 498.430462 213.215371 
L 499.699236 224.020236 
L 500.96801 237.265255 
L 502.236784 241.51175 
L 503.505558 229.419897 
L 504.774332 235.774712 
L 506.043106 237.86951 
L 507.31188 232.100039 
L 508.580654 220.822005 
L 509.849428 220.268603 
L 511.118203 233.896545 
L 512.386977 231.098576 
L 513.655751 213.107676 
L 514.924525 221.13876 
L 516.193299 229.905982 
L 517.462073 222.884103 
L 518.730847 223.28828 
L 519.999621 242.152068 
L 521.268395 228.585945 
L 522.537169 218.608204 
L 523.805943 212.669226 
L 525.074717 212.630113 
L 526.343491 223.393206 
L 527.612265 230.533396 
L 528.881039 232.378415 
L 530.149813 239.788929 
L 531.418587 239.414962 
L 532.687361 220.945728 
L 533.956135 221.871721 
L 535.22491 221.900273 
L 536.493684 224.730252 
L 537.762458 220.581586 
L 539.031232 243.911092 
L 540.300006 241.926434 
L 541.56878 230.34763 
L 542.837554 226.948289 
L 544.106328 235.607629 
L 545.375102 226.119641 
L 546.643876 214.528515 
L 547.91265 216.613338 
L 549.181424 229.131712 
L 550.450198 238.435743 
L 551.718972 238.147367 
L 552.987746 230.500388 
L 554.25652 220.046774 
L 555.525294 223.619948 
L 556.794068 228.727955 
L 558.062842 226.950739 
L 559.331617 231.846297 
L 560.600391 218.49562 
L 561.869165 226.408076 
L 563.137939 233.076751 
L 564.406713 235.484709 
L 565.675487 212.244295 
L 566.944261 218.813443 
L 568.213035 233.904504 
L 569.481809 235.085086 
L 570.750583 223.973194 
L 572.019357 232.495804 
L 573.288131 238.366646 
L 574.556905 217.731422 
L 575.825679 212.324044 
L 577.094453 218.212634 
L 578.363227 221.288808 
L 579.632001 230.530052 
L 580.900775 238.30684 
L 582.16955 234.3438 
L 583.438324 238.416539 
L 584.707098 229.675475 
L 585.975872 228.181977 
L 587.244646 239.931019 
L 588.51342 226.59223 
L 589.782194 215.792656 
L 591.050968 229.388162 
L 592.319742 227.311936 
L 593.588516 223.507716 
L 596.126064 229.785267 
L 597.394838 217.03598 
L 598.663612 210.78891 
L 599.932386 215.836097 
L 601.20116 225.897726 
L 602.469934 215.232063 
L 603.738708 219.212621 
L 606.276257 229.046089 
L 607.545031 215.284184 
L 608.813805 212.628661 
L 610.082579 222.031754 
L 611.351353 228.600663 
L 612.620127 232.706688 
L 613.888901 230.79718 
L 615.157675 219.986887 
L 616.426449 240.31575 
L 617.695223 245.629538 
L 618.963997 234.159229 
L 620.232771 242.912288 
L 621.501545 246.722036 
L 622.770319 241.157891 
L 624.039093 228.354442 
L 625.307867 247.330578 
L 626.576641 244.450128 
L 627.845415 227.581211 
L 629.114189 226.092672 
L 630.382964 225.226717 
L 631.651738 230.541652 
L 632.920512 230.489495 
L 634.189286 238.087015 
L 635.45806 229.309154 
L 636.726834 229.496138 
L 637.995608 225.143802 
L 639.264382 221.356139 
L 640.533156 222.304948 
L 641.80193 229.497815 
L 643.070704 244.833716 
L 644.339478 242.82566 
L 645.608252 235.384486 
L 646.877026 239.901866 
L 648.1458 229.506144 
L 649.414574 216.831711 
L 650.683348 241.369387 
L 651.952122 232.037205 
L 653.220896 233.814518 
L 654.489671 240.702172 
L 655.758445 225.277962 
L 657.027219 238.119085 
L 658.295993 230.863302 
L 659.564767 226.819884 
L 660.833541 220.06454 
L 662.102315 221.347411 
L 663.371089 232.190819 
L 664.639863 225.982746 
L 665.908637 243.198994 
L 667.177411 243.046374 
L 668.446185 228.101519 
L 669.714959 239.054464 
L 672.252507 223.138996 
L 673.521281 232.720921 
L 674.790055 235.854935 
L 676.058829 232.149658 
L 677.327603 244.322795 
L 678.596378 228.517664 
L 679.865152 234.228113 
L 681.133926 224.856731 
L 682.4027 241.083051 
L 683.671474 227.462228 
L 684.940248 223.21511 
L 686.209022 225.917097 
L 687.477796 223.679026 
L 688.74657 217.032368 
L 690.015344 228.47145 
L 691.284118 235.049545 
L 692.552892 234.746441 
L 693.821666 234.680376 
L 695.09044 265.740682 
L 695.09044 265.740682 
" clip-path="url(#p37a49d7e2e)" style="fill: none; stroke: #1f77b4; stroke-width: 1.5; stroke-linecap: square"/>
   </g>
   <g id="line2d_66">
    <path d="M 45.478125 112.082504 
L 46.746899 34.104318 
L 48.015673 71.800095 
L 49.284447 100.065641 
L 50.553221 96.121986 
L 51.821995 112.993732 
L 53.090769 98.35921 
L 54.359543 92.834538 
L 55.628317 98.528748 
L 56.897091 94.857751 
L 58.165866 83.215101 
L 59.43464 82.978919 
L 60.703414 74.344495 
L 61.972188 76.052608 
L 63.240962 87.017121 
L 64.509736 87.139739 
L 65.77851 83.653554 
L 67.047284 92.395915 
L 68.316058 94.385542 
L 69.584832 97.507446 
L 70.853606 96.421707 
L 72.12238 88.362235 
L 73.391154 92.971177 
L 74.659928 104.763828 
L 75.928702 102.700451 
L 77.197476 87.220706 
L 78.46625 82.505501 
L 79.735024 90.993759 
L 81.003798 104.727605 
L 82.272573 77.690258 
L 83.541347 81.716204 
L 84.810121 84.295795 
L 86.078895 84.718096 
L 87.347669 86.536261 
L 88.616443 97.783614 
L 89.885217 97.148771 
L 91.153991 102.010256 
L 92.422765 102.144903 
L 93.691539 88.853243 
L 94.960313 77.666184 
L 96.229087 90.152522 
L 97.497861 83.48931 
L 98.766635 92.415116 
L 100.035409 96.659945 
L 101.304183 109.844418 
L 103.841731 84.011222 
L 105.110506 95.802971 
L 106.37928 109.545261 
L 107.648054 102.787355 
L 108.916828 98.400334 
L 110.185602 93.242177 
L 111.454376 92.797031 
L 112.72315 93.140175 
L 113.991924 98.429748 
L 115.260698 102.325149 
L 116.529472 116.946754 
L 117.798246 104.196839 
L 119.06702 98.281916 
L 120.335794 103.645936 
L 121.604568 116.021139 
L 122.873342 113.473676 
L 124.142116 111.278752 
L 125.41089 109.896662 
L 126.679664 109.403277 
L 127.948438 110.193567 
L 129.217213 98.338894 
L 130.485987 104.753776 
L 131.754761 115.167262 
L 133.023535 120.264762 
L 134.292309 132.968443 
L 135.561083 115.1577 
L 136.829857 108.042767 
L 138.098631 106.236366 
L 139.367405 102.272943 
L 140.636179 103.841984 
L 143.173727 116.926218 
L 144.442501 116.528181 
L 145.711275 111.985278 
L 146.980049 110.335364 
L 148.248823 135.498274 
L 149.517597 139.200055 
L 150.786371 124.654266 
L 152.055145 103.316706 
L 153.32392 108.423404 
L 154.592694 122.422421 
L 155.861468 125.580296 
L 157.130242 126.885938 
L 159.66779 111.04286 
L 160.936564 107.738177 
L 163.474112 99.749091 
L 164.742886 100.040104 
L 166.01166 113.888067 
L 167.280434 125.317309 
L 168.549208 115.10598 
L 169.817982 114.67604 
L 171.086756 111.791959 
L 172.35553 103.916815 
L 173.624304 94.478906 
L 174.893078 110.813685 
L 176.161852 117.037277 
L 177.430627 117.614224 
L 178.699401 110.119987 
L 179.968175 109.870277 
L 181.236949 105.570868 
L 182.505723 115.671081 
L 183.774497 105.652287 
L 185.043271 115.331444 
L 186.312045 118.977854 
L 187.580819 105.972408 
L 188.849593 102.704796 
L 190.118367 117.568429 
L 191.387141 120.600433 
L 192.655915 137.23567 
L 193.924689 140.568791 
L 195.193463 121.581342 
L 196.462237 109.704469 
L 197.731011 107.744542 
L 198.999785 115.121712 
L 200.268559 124.837516 
L 201.537334 117.842126 
L 202.806108 94.809657 
L 204.074882 98.179732 
L 205.343656 121.337138 
L 207.881204 103.552299 
L 209.149978 114.899805 
L 210.418752 106.624613 
L 211.687526 97.013314 
L 212.9563 102.745842 
L 214.225074 110.911895 
L 215.493848 108.030026 
L 216.762622 94.251449 
L 218.031396 103.540069 
L 219.30017 117.417975 
L 220.568944 113.332092 
L 221.837718 107.878188 
L 223.106492 115.107533 
L 224.375267 117.238767 
L 225.644041 117.882883 
L 226.912815 108.195829 
L 228.181589 114.020143 
L 229.450363 115.27595 
L 230.719137 117.649704 
L 231.987911 109.967314 
L 233.256685 97.141175 
L 234.525459 114.471216 
L 235.794233 129.009163 
L 237.063007 122.934559 
L 238.331781 109.249638 
L 239.600555 119.127073 
L 240.869329 109.743007 
L 242.138103 114.715797 
L 243.406877 108.968847 
L 244.675651 110.972403 
L 245.944425 99.439032 
L 248.481974 113.341051 
L 249.750748 99.476695 
L 251.019522 102.309458 
L 252.288296 91.220764 
L 253.55707 97.733626 
L 254.825844 102.164708 
L 256.094618 95.955777 
L 257.363392 103.010372 
L 258.632166 118.879231 
L 259.90094 116.269818 
L 261.169714 114.980316 
L 262.438488 117.917639 
L 263.707262 122.432849 
L 264.976036 122.490149 
L 266.24481 112.920017 
L 267.513584 112.142348 
L 268.782358 116.321215 
L 270.051132 102.938729 
L 271.319906 107.69897 
L 272.588681 116.556226 
L 273.857455 111.366073 
L 275.126229 104.19242 
L 276.395003 115.458607 
L 277.663777 130.812054 
L 278.932551 128.499513 
L 280.201325 127.17697 
L 281.470099 129.121706 
L 282.738873 124.838348 
L 284.007647 130.683829 
L 285.276421 122.896637 
L 286.545195 124.047673 
L 287.813969 107.094739 
L 289.082743 93.525535 
L 290.351517 101.706187 
L 291.620291 117.922845 
L 292.889065 121.180931 
L 294.157839 107.456303 
L 295.426613 115.810874 
L 296.695388 127.074538 
L 297.964162 126.759284 
L 299.232936 121.50704 
L 300.50171 121.842261 
L 301.770484 120.920451 
L 303.039258 118.760347 
L 304.308032 126.104273 
L 305.576806 123.402266 
L 306.84558 115.298527 
L 308.114354 113.368653 
L 309.383128 121.297876 
L 310.651902 124.301741 
L 311.920676 123.315955 
L 313.18945 129.010365 
L 314.458224 112.855517 
L 315.726998 120.715126 
L 316.995772 118.584021 
L 318.264546 107.861018 
L 319.53332 112.853604 
L 320.802095 116.515924 
L 322.070869 120.827826 
L 323.339643 112.755566 
L 324.608417 116.987658 
L 325.877191 114.684814 
L 327.145965 126.411693 
L 328.414739 118.826843 
L 329.683513 114.82195 
L 330.952287 124.841268 
L 332.221061 123.04321 
L 333.489835 120.167708 
L 334.758609 132.232623 
L 336.027383 123.512044 
L 337.296157 127.099025 
L 338.564931 134.353199 
L 339.833705 113.02596 
L 341.102479 131.374302 
L 342.371253 140.123272 
L 343.640028 150.160713 
L 344.908802 135.188834 
L 346.177576 127.101799 
L 347.44635 114.475013 
L 348.715124 132.139497 
L 349.983898 131.186942 
L 351.252672 114.209317 
L 352.521446 111.777421 
L 353.79022 123.75838 
L 355.058994 122.284943 
L 356.327768 123.664015 
L 357.596542 134.670419 
L 358.865316 140.418341 
L 360.13409 130.254832 
L 361.402864 127.583303 
L 363.940412 144.002688 
L 365.209186 125.448808 
L 366.47796 129.050094 
L 367.746735 120.464037 
L 369.015509 123.212176 
L 370.284283 130.891551 
L 371.553057 134.656801 
L 372.821831 133.543661 
L 374.090605 133.065058 
L 375.359379 135.442494 
L 376.628153 142.460601 
L 377.896927 137.05176 
L 379.165701 126.754351 
L 380.434475 138.917732 
L 381.703249 145.172079 
L 384.240797 122.522881 
L 385.509571 124.983832 
L 388.047119 131.962691 
L 389.315893 136.579624 
L 390.584667 135.511909 
L 391.853442 130.579875 
L 393.122216 130.279926 
L 394.39099 112.26436 
L 395.659764 121.496703 
L 396.928538 133.510515 
L 399.466086 129.513842 
L 400.73486 141.064793 
L 402.003634 135.330988 
L 403.272408 115.958964 
L 404.541182 115.772229 
L 405.809956 121.039713 
L 407.07873 120.070531 
L 408.347504 124.240941 
L 409.616278 134.181552 
L 410.885052 131.23888 
L 412.153826 149.125174 
L 413.4226 133.375796 
L 414.691374 142.926213 
L 415.960149 138.431121 
L 417.228923 138.965777 
L 418.497697 138.383233 
L 419.766471 143.360948 
L 421.035245 131.494221 
L 422.304019 125.506186 
L 423.572793 134.083841 
L 424.841567 135.028202 
L 427.379115 140.415174 
L 428.647889 134.443625 
L 429.916663 135.822714 
L 431.185437 139.358589 
L 432.454211 131.085349 
L 433.722985 137.345648 
L 434.991759 125.581517 
L 436.260533 118.753522 
L 437.529307 121.880219 
L 438.798081 126.517136 
L 440.066856 145.23101 
L 441.33563 129.300521 
L 442.604404 135.512924 
L 443.873178 140.33376 
L 445.141952 140.87617 
L 446.410726 143.717688 
L 447.6795 135.105803 
L 448.948274 148.488835 
L 450.217048 145.295201 
L 451.485822 140.638263 
L 452.754596 132.920679 
L 454.02337 126.714645 
L 455.292144 134.25907 
L 456.560918 131.746532 
L 457.829692 136.973473 
L 459.098466 147.723318 
L 461.636014 135.473726 
L 462.904789 138.476973 
L 464.173563 136.004895 
L 465.442337 130.591285 
L 466.711111 134.999867 
L 467.979885 140.718741 
L 469.248659 145.327243 
L 470.517433 138.55936 
L 471.786207 154.254735 
L 473.054981 143.22712 
L 474.323755 135.447019 
L 475.592529 136.375275 
L 476.861303 132.825353 
L 478.130077 139.347069 
L 479.398851 155.182493 
L 480.667625 149.112999 
L 481.936399 127.854889 
L 483.205173 126.909686 
L 484.473947 140.569932 
L 485.742721 142.760716 
L 487.011496 149.620562 
L 488.28027 153.109365 
L 489.549044 148.412472 
L 490.817818 147.691939 
L 492.086592 144.783032 
L 493.355366 143.140227 
L 494.62414 143.72324 
L 495.892914 166.726675 
L 497.161688 142.874991 
L 498.430462 143.911966 
L 499.699236 133.616137 
L 500.96801 121.653616 
L 502.236784 127.526383 
L 503.505558 141.494989 
L 504.774332 151.331481 
L 506.043106 152.523179 
L 507.31188 153.19459 
L 508.580654 175.066084 
L 509.849428 165.109415 
L 511.118203 142.128872 
L 512.386977 142.369437 
L 513.655751 156.969778 
L 514.924525 139.832671 
L 516.193299 140.912583 
L 517.462073 161.451912 
L 518.730847 149.362675 
L 519.999621 148.557108 
L 521.268395 139.540384 
L 522.537169 145.950894 
L 523.805943 155.759562 
L 525.074717 152.400885 
L 526.343491 152.383145 
L 527.612265 149.705361 
L 528.881039 156.636551 
L 530.149813 143.409767 
L 531.418587 137.15521 
L 532.687361 147.127147 
L 533.956135 145.722097 
L 535.22491 150.433183 
L 536.493684 152.175539 
L 537.762458 148.588698 
L 539.031232 153.955987 
L 540.300006 164.541544 
L 541.56878 152.041961 
L 542.837554 138.183894 
L 544.106328 149.572513 
L 545.375102 157.827617 
L 546.643876 152.259135 
L 547.91265 136.660335 
L 549.181424 137.06276 
L 550.450198 138.413027 
L 551.718972 142.434006 
L 552.987746 139.417058 
L 554.25652 159.573502 
L 555.525294 159.142751 
L 556.794068 146.808561 
L 558.062842 132.079741 
L 559.331617 134.726311 
L 560.600391 158.015028 
L 561.869165 151.48787 
L 563.137939 149.144649 
L 564.406713 142.615552 
L 565.675487 141.892893 
L 566.944261 144.033868 
L 568.213035 159.335594 
L 569.481809 156.338937 
L 570.750583 155.655824 
L 572.019357 140.439715 
L 573.288131 148.96466 
L 574.556905 145.526211 
L 575.825679 149.156207 
L 577.094453 147.820054 
L 578.363227 147.505967 
L 579.632001 160.098366 
L 580.900775 161.734778 
L 582.16955 155.559131 
L 583.438324 155.113578 
L 584.707098 159.390284 
L 585.975872 151.266025 
L 587.244646 136.138754 
L 588.51342 149.98534 
L 589.782194 148.447795 
L 591.050968 156.486331 
L 592.319742 159.374889 
L 593.588516 149.544626 
L 594.85729 132.6758 
L 596.126064 135.234634 
L 597.394838 150.029767 
L 598.663612 161.11264 
L 599.932386 155.095112 
L 601.20116 144.879421 
L 602.469934 148.790813 
L 603.738708 143.765467 
L 605.007482 149.145504 
L 606.276257 150.509608 
L 607.545031 153.066702 
L 608.813805 149.961639 
L 611.351353 167.218091 
L 612.620127 150.088713 
L 613.888901 148.499295 
L 615.157675 163.3338 
L 616.426449 156.883178 
L 617.695223 156.145303 
L 618.963997 152.795713 
L 620.232771 138.8049 
L 621.501545 143.108946 
L 622.770319 149.668962 
L 624.039093 137.563542 
L 625.307867 127.33834 
L 626.576641 145.418196 
L 627.845415 153.449053 
L 629.114189 151.495817 
L 630.382964 144.066391 
L 631.651738 153.479475 
L 632.920512 167.386074 
L 634.189286 161.517445 
L 635.45806 146.863867 
L 636.726834 150.135769 
L 637.995608 160.206397 
L 639.264382 155.697157 
L 640.533156 152.001566 
L 641.80193 151.96588 
L 643.070704 152.597979 
L 644.339478 157.691258 
L 645.608252 146.698923 
L 646.877026 153.687094 
L 648.1458 147.090889 
L 649.414574 155.146698 
L 650.683348 170.981049 
L 651.952122 167.36739 
L 653.220896 165.331053 
L 654.489671 160.645577 
L 655.758445 157.752404 
L 657.027219 160.238107 
L 658.295993 165.866769 
L 659.564767 167.223189 
L 660.833541 169.346157 
L 662.102315 162.652684 
L 663.371089 149.813472 
L 664.639863 159.314105 
L 665.908637 151.918805 
L 667.177411 142.519806 
L 668.446185 148.464904 
L 669.714959 155.465003 
L 670.983733 170.766183 
L 672.252507 161.512969 
L 673.521281 146.312477 
L 674.790055 155.029292 
L 676.058829 152.64171 
L 677.327603 158.439776 
L 678.596378 161.424958 
L 679.865152 153.968848 
L 681.133926 145.411223 
L 682.4027 150.46697 
L 683.671474 156.350948 
L 684.940248 145.826943 
L 686.209022 157.693591 
L 687.477796 155.147173 
L 688.74657 147.814846 
L 690.015344 163.771052 
L 691.284118 155.105013 
L 692.552892 150.51015 
L 693.821666 153.49099 
L 695.09044 185.946453 
L 695.09044 185.946453 
" clip-path="url(#p37a49d7e2e)" style="fill: none; stroke: #d62728; stroke-width: 1.5; stroke-linecap: square"/>
   </g>
   <g id="line2d_67">
    <path d="M 123.431603 277.3225 
L 123.431603 22.5225 
" clip-path="url(#p37a49d7e2e)" style="fill: none; stroke-dasharray: 1.5,2.475; stroke-dashoffset: 0; stroke: #808080; stroke-opacity: 0.6; stroke-width: 1.5"/>
   </g>
   <g id="line2d_68">
    <path d="M 201.385081 277.3225 
L 201.385081 22.5225 
" clip-path="url(#p37a49d7e2e)" style="fill: none; stroke-dasharray: 1.5,2.475; stroke-dashoffset: 0; stroke: #808080; stroke-opacity: 0.6; stroke-width: 1.5"/>
   </g>
   <g id="line2d_69">
    <path d="M 279.338558 277.3225 
L 279.338558 22.5225 
" clip-path="url(#p37a49d7e2e)" style="fill: none; stroke-dasharray: 1.5,2.475; stroke-dashoffset: 0; stroke: #808080; stroke-opacity: 0.6; stroke-width: 1.5"/>
   </g>
   <g id="patch_4">
    <path d="M 45.478125 277.3225 
L 45.478125 22.5225 
" style="fill: none; stroke: #000000; stroke-width: 0.8; stroke-linejoin: miter; stroke-linecap: square"/>
   </g>
   <g id="patch_5">
    <path d="M 695.09044 277.3225 
L 695.09044 22.5225 
" style="fill: none; stroke: #000000; stroke-width: 0.8; stroke-linejoin: miter; stroke-linecap: square"/>
   </g>
   <g id="patch_6">
    <path d="M 45.478125 277.3225 
L 695.09044 277.3225 
" style="fill: none; stroke: #000000; stroke-width: 0.8; stroke-linejoin: miter; stroke-linecap: square"/>
   </g>
   <g id="patch_7">
    <path d="M 45.478125 22.5225 
L 695.09044 22.5225 
" style="fill: none; stroke: #000000; stroke-width: 0.8; stroke-linejoin: miter; stroke-linecap: square"/>
   </g>
   <g id="text_12">
    <!-- PSD (Welch, log, 1000 Hz) — visão suave dos espectros -->
    <g transform="translate(203.217095 16.5225) scale(0.12 -0.12)">
     <defs>
      <path id="DejaVuSans-57" d="M 213 4666 
L 850 4666 
L 1831 722 
L 2809 4666 
L 3519 4666 
L 4500 722 
L 5478 4666 
L 6119 4666 
L 4947 0 
L 4153 0 
L 3169 4050 
L 2175 0 
L 1381 0 
L 213 4666 
z
" transform="scale(0.015625)"/>
      <path id="DejaVuSans-68" d="M 3513 2113 
L 3513 0 
L 2938 0 
L 2938 2094 
Q 2938 2591 2744 2837 
Q 2550 3084 2163 3084 
Q 1697 3084 1428 2787 
Q 1159 2491 1159 1978 
L 1159 0 
L 581 0 
L 581 4863 
L 1159 4863 
L 1159 2956 
Q 1366 3272 1645 3428 
Q 1925 3584 2291 3584 
Q 2894 3584 3203 3211 
Q 3513 2838 3513 2113 
z
" transform="scale(0.015625)"/>
      <path id="DejaVuSans-2c" d="M 750 794 
L 1409 794 
L 1409 256 
L 897 -744 
L 494 -744 
L 750 256 
L 750 794 
z
" transform="scale(0.015625)"/>
      <path id="DejaVuSans-2014" d="M 313 1978 
L 6088 1978 
L 6088 1528 
L 313 1528 
L 313 1978 
z
" transform="scale(0.015625)"/>
      <path id="DejaVuSans-76" d="M 191 3500 
L 800 3500 
L 1894 563 
L 2988 3500 
L 3597 3500 
L 2284 0 
L 1503 0 
L 191 3500 
z
" transform="scale(0.015625)"/>
      <path id="DejaVuSans-73" d="M 2834 3397 
L 2834 2853 
Q 2591 2978 2328 3040 
Q 2066 3103 1784 3103 
Q 1356 3103 1142 2972 
Q 928 2841 928 2578 
Q 928 2378 1081 2264 
Q 1234 2150 1697 2047 
L 1894 2003 
Q 2506 1872 2764 1633 
Q 3022 1394 3022 966 
Q 3022 478 2636 193 
Q 2250 -91 1575 -91 
Q 1294 -91 989 -36 
Q 684 19 347 128 
L 347 722 
Q 666 556 975 473 
Q 1284 391 1588 391 
Q 1994 391 2212 530 
Q 2431 669 2431 922 
Q 2431 1156 2273 1281 
Q 2116 1406 1581 1522 
L 1381 1569 
Q 847 1681 609 1914 
Q 372 2147 372 2553 
Q 372 3047 722 3315 
Q 1072 3584 1716 3584 
Q 2034 3584 2315 3537 
Q 2597 3491 2834 3397 
z
" transform="scale(0.015625)"/>
      <path id="DejaVuSans-e3" d="M 2194 1759 
Q 1497 1759 1228 1600 
Q 959 1441 959 1056 
Q 959 750 1161 570 
Q 1363 391 1709 391 
Q 2188 391 2477 730 
Q 2766 1069 2766 1631 
L 2766 1759 
L 2194 1759 
z
M 3341 1997 
L 3341 0 
L 2766 0 
L 2766 531 
Q 2569 213 2275 61 
Q 1981 -91 1556 -91 
Q 1019 -91 701 211 
Q 384 513 384 1019 
Q 384 1609 779 1909 
Q 1175 2209 1959 2209 
L 2766 2209 
L 2766 2266 
Q 2766 2663 2505 2880 
Q 2244 3097 1772 3097 
Q 1472 3097 1187 3025 
Q 903 2953 641 2809 
L 641 3341 
Q 956 3463 1253 3523 
Q 1550 3584 1831 3584 
Q 2591 3584 2966 3190 
Q 3341 2797 3341 1997 
z
M 1844 4281 
L 1665 4453 
Q 1597 4516 1545 4545 
Q 1494 4575 1453 4575 
Q 1334 4575 1278 4461 
Q 1222 4347 1215 4091 
L 825 4091 
Q 831 4513 990 4742 
Q 1150 4972 1434 4972 
Q 1553 4972 1653 4928 
Q 1753 4884 1869 4781 
L 2047 4609 
Q 2115 4547 2167 4517 
Q 2219 4488 2259 4488 
Q 2378 4488 2434 4602 
Q 2490 4716 2497 4972 
L 2887 4972 
Q 2881 4550 2721 4320 
Q 2562 4091 2278 4091 
Q 2159 4091 2059 4134 
Q 1959 4178 1844 4281 
z
" transform="scale(0.015625)"/>
      <path id="DejaVuSans-64" d="M 2906 2969 
L 2906 4863 
L 3481 4863 
L 3481 0 
L 2906 0 
L 2906 525 
Q 2725 213 2448 61 
Q 2172 -91 1784 -91 
Q 1150 -91 751 415 
Q 353 922 353 1747 
Q 353 2572 751 3078 
Q 1150 3584 1784 3584 
Q 2172 3584 2448 3432 
Q 2725 3281 2906 2969 
z
M 947 1747 
Q 947 1113 1208 752 
Q 1469 391 1925 391 
Q 2381 391 2643 752 
Q 2906 1113 2906 1747 
Q 2906 2381 2643 2742 
Q 2381 3103 1925 3103 
Q 1469 3103 1208 2742 
Q 947 2381 947 1747 
z
" transform="scale(0.015625)"/>
      <path id="DejaVuSans-70" d="M 1159 525 
L 1159 -1331 
L 581 -1331 
L 581 3500 
L 1159 3500 
L 1159 2969 
Q 1341 3281 1617 3432 
Q 1894 3584 2278 3584 
Q 2916 3584 3314 3078 
Q 3713 2572 3713 1747 
Q 3713 922 3314 415 
Q 2916 -91 2278 -91 
Q 1894 -91 1617 61 
Q 1341 213 1159 525 
z
M 3116 1747 
Q 3116 2381 2855 2742 
Q 2594 3103 2138 3103 
Q 1681 3103 1420 2742 
Q 1159 2381 1159 1747 
Q 1159 1113 1420 752 
Q 1681 391 2138 391 
Q 2594 391 2855 752 
Q 3116 1113 3116 1747 
z
" transform="scale(0.015625)"/>
      <path id="DejaVuSans-74" d="M 1172 4494 
L 1172 3500 
L 2356 3500 
L 2356 3053 
L 1172 3053 
L 1172 1153 
Q 1172 725 1289 603 
Q 1406 481 1766 481 
L 2356 481 
L 2356 0 
L 1766 0 
Q 1100 0 847 248 
Q 594 497 594 1153 
L 594 3053 
L 172 3053 
L 172 3500 
L 594 3500 
L 594 4494 
L 1172 4494 
z
" transform="scale(0.015625)"/>
     </defs>
     <use xlink:href="#DejaVuSans-50"/>
     <use xlink:href="#DejaVuSans-53" transform="translate(60.302734 0)"/>
     <use xlink:href="#DejaVuSans-44" transform="translate(123.779297 0)"/>
     <use xlink:href="#DejaVuSans-20" transform="translate(200.78125 0)"/>
     <use xlink:href="#DejaVuSans-28" transform="translate(232.568359 0)"/>
     <use xlink:href="#DejaVuSans-57" transform="translate(271.582031 0)"/>
     <use xlink:href="#DejaVuSans-65" transform="translate(364.583984 0)"/>
     <use xlink:href="#DejaVuSans-6c" transform="translate(426.107422 0)"/>
     <use xlink:href="#DejaVuSans-63" transform="translate(453.890625 0)"/>
     <use xlink:href="#DejaVuSans-68" transform="translate(508.871094 0)"/>
     <use xlink:href="#DejaVuSans-2c" transform="translate(572.25 0)"/>
     <use xlink:href="#DejaVuSans-20" transform="translate(604.037109 0)"/>
     <use xlink:href="#DejaVuSans-6c" transform="translate(635.824219 0)"/>
     <use xlink:href="#DejaVuSans-6f" transform="translate(663.607422 0)"/>
     <use xlink:href="#DejaVuSans-67" transform="translate(724.789062 0)"/>
     <use xlink:href="#DejaVuSans-2c" transform="translate(788.265625 0)"/>
     <use xlink:href="#DejaVuSans-20" transform="translate(820.052734 0)"/>
     <use xlink:href="#DejaVuSans-31" transform="translate(851.839844 0)"/>
     <use xlink:href="#DejaVuSans-30" transform="translate(915.462891 0)"/>
     <use xlink:href="#DejaVuSans-30" transform="translate(979.085938 0)"/>
     <use xlink:href="#DejaVuSans-30" transform="translate(1042.708984 0)"/>
     <use xlink:href="#DejaVuSans-20" transform="translate(1106.332031 0)"/>
     <use xlink:href="#DejaVuSans-48" transform="translate(1138.119141 0)"/>
     <use xlink:href="#DejaVuSans-7a" transform="translate(1213.314453 0)"/>
     <use xlink:href="#DejaVuSans-29" transform="translate(1265.804688 0)"/>
     <use xlink:href="#DejaVuSans-20" transform="translate(1304.818359 0)"/>
     <use xlink:href="#DejaVuSans-2014" transform="translate(1336.605469 0)"/>
     <use xlink:href="#DejaVuSans-20" transform="translate(1436.605469 0)"/>
     <use xlink:href="#DejaVuSans-76" transform="translate(1468.392578 0)"/>
     <use xlink:href="#DejaVuSans-69" transform="translate(1527.572266 0)"/>
     <use xlink:href="#DejaVuSans-73" transform="translate(1555.355469 0)"/>
     <use xlink:href="#DejaVuSans-e3" transform="translate(1607.455078 0)"/>
     <use xlink:href="#DejaVuSans-6f" transform="translate(1668.734375 0)"/>
     <use xlink:href="#DejaVuSans-20" transform="translate(1729.916016 0)"/>
     <use xlink:href="#DejaVuSans-73" transform="translate(1761.703125 0)"/>
     <use xlink:href="#DejaVuSans-75" transform="translate(1813.802734 0)"/>
     <use xlink:href="#DejaVuSans-61" transform="translate(1877.181641 0)"/>
     <use xlink:href="#DejaVuSans-76" transform="translate(1938.460938 0)"/>
     <use xlink:href="#DejaVuSans-65" transform="translate(1997.640625 0)"/>
     <use xlink:href="#DejaVuSans-20" transform="translate(2059.164062 0)"/>
     <use xlink:href="#DejaVuSans-64" transform="translate(2090.951172 0)"/>
     <use xlink:href="#DejaVuSans-6f" transform="translate(2154.427734 0)"/>
     <use xlink:href="#DejaVuSans-73" transform="translate(2215.609375 0)"/>
     <use xlink:href="#DejaVuSans-20" transform="translate(2267.708984 0)"/>
     <use xlink:href="#DejaVuSans-65" transform="translate(2299.496094 0)"/>
     <use xlink:href="#DejaVuSans-73" transform="translate(2361.019531 0)"/>
     <use xlink:href="#DejaVuSans-70" transform="translate(2413.119141 0)"/>
     <use xlink:href="#DejaVuSans-65" transform="translate(2476.595703 0)"/>
     <use xlink:href="#DejaVuSans-63" transform="translate(2538.119141 0)"/>
     <use xlink:href="#DejaVuSans-74" transform="translate(2593.099609 0)"/>
     <use xlink:href="#DejaVuSans-72" transform="translate(2632.308594 0)"/>
     <use xlink:href="#DejaVuSans-6f" transform="translate(2671.171875 0)"/>
     <use xlink:href="#DejaVuSans-73" transform="translate(2732.353516 0)"/>
    </g>
   </g>
   <g id="legend_1">
    <g id="patch_8">
     <path d="M 613.781065 56.16 
L 688.79044 56.16 
Q 690.59044 56.16 690.59044 54.36 
L 690.59044 28.8225 
Q 690.59044 27.0225 688.79044 27.0225 
L 613.781065 27.0225 
Q 611.981065 27.0225 611.981065 28.8225 
L 611.981065 54.36 
Q 611.981065 56.16 613.781065 56.16 
z
" style="fill: #ffffff; opacity: 0.8; stroke: #cccccc; stroke-linejoin: miter"/>
    </g>
    <g id="line2d_70">
     <path d="M 615.581065 34.311094 
L 624.581065 34.311094 
L 633.581065 34.311094 
" style="fill: none; stroke: #1f77b4; stroke-width: 1.5; stroke-linecap: square"/>
    </g>
    <g id="text_13">
     <!-- Repouso -->
     <g transform="translate(640.781065 37.461094) scale(0.09 -0.09)">
      <defs>
       <path id="DejaVuSans-52" d="M 2841 2188 
Q 3044 2119 3236 1894 
Q 3428 1669 3622 1275 
L 4263 0 
L 3584 0 
L 2988 1197 
Q 2756 1666 2539 1819 
Q 2322 1972 1947 1972 
L 1259 1972 
L 1259 0 
L 628 0 
L 628 4666 
L 2053 4666 
Q 2853 4666 3247 4331 
Q 3641 3997 3641 3322 
Q 3641 2881 3436 2590 
Q 3231 2300 2841 2188 
z
M 1259 4147 
L 1259 2491 
L 2053 2491 
Q 2509 2491 2742 2702 
Q 2975 2913 2975 3322 
Q 2975 3731 2742 3939 
Q 2509 4147 2053 4147 
L 1259 4147 
z
" transform="scale(0.015625)"/>
      </defs>
      <use xlink:href="#DejaVuSans-52"/>
      <use xlink:href="#DejaVuSans-65" transform="translate(64.982422 0)"/>
      <use xlink:href="#DejaVuSans-70" transform="translate(126.505859 0)"/>
      <use xlink:href="#DejaVuSans-6f" transform="translate(189.982422 0)"/>
      <use xlink:href="#DejaVuSans-75" transform="translate(251.164062 0)"/>
      <use xlink:href="#DejaVuSans-73" transform="translate(314.542969 0)"/>
      <use xlink:href="#DejaVuSans-6f" transform="translate(366.642578 0)"/>
     </g>
    </g>
    <g id="line2d_71">
     <path d="M 615.581065 47.538281 
L 624.581065 47.538281 
L 633.581065 47.538281 
" style="fill: none; stroke: #d62728; stroke-width: 1.5; stroke-linecap: square"/>
    </g>
    <g id="text_14">
     <!-- Contração -->
     <g transform="translate(640.781065 50.688281) scale(0.09 -0.09)">
      <defs>
       <path id="DejaVuSans-43" d="M 4122 4306 
L 4122 3641 
Q 3803 3938 3442 4084 
Q 3081 4231 2675 4231 
Q 1875 4231 1450 3742 
Q 1025 3253 1025 2328 
Q 1025 1406 1450 917 
Q 1875 428 2675 428 
Q 3081 428 3442 575 
Q 3803 722 4122 1019 
L 4122 359 
Q 3791 134 3420 21 
Q 3050 -91 2638 -91 
Q 1578 -91 968 557 
Q 359 1206 359 2328 
Q 359 3453 968 4101 
Q 1578 4750 2638 4750 
Q 3056 4750 3426 4639 
Q 3797 4528 4122 4306 
z
" transform="scale(0.015625)"/>
       <path id="DejaVuSans-e7" d="M 3122 3366 
L 3122 2828 
Q 2878 2963 2633 3030 
Q 2388 3097 2138 3097 
Q 1578 3097 1268 2742 
Q 959 2388 959 1747 
Q 959 1106 1268 751 
Q 1578 397 2138 397 
Q 2388 397 2633 464 
Q 2878 531 3122 666 
L 3122 134 
Q 2881 22 2623 -34 
Q 2366 -91 2075 -91 
Q 1284 -91 818 406 
Q 353 903 353 1747 
Q 353 2603 823 3093 
Q 1294 3584 2113 3584 
Q 2378 3584 2631 3529 
Q 2884 3475 3122 3366 
z
M 2311 0 
Q 2482 -194 2566 -358 
Q 2651 -522 2651 -672 
Q 2651 -950 2463 -1092 
Q 2276 -1234 1907 -1234 
Q 1764 -1234 1628 -1215 
Q 1492 -1197 1357 -1159 
L 1357 -750 
Q 1464 -803 1579 -826 
Q 1695 -850 1842 -850 
Q 2026 -850 2120 -775 
Q 2214 -700 2214 -556 
Q 2214 -463 2146 -327 
Q 2079 -191 1939 0 
L 2311 0 
z
" transform="scale(0.015625)"/>
      </defs>
      <use xlink:href="#DejaVuSans-43"/>
      <use xlink:href="#DejaVuSans-6f" transform="translate(69.824219 0)"/>
      <use xlink:href="#DejaVuSans-6e" transform="translate(131.005859 0)"/>
      <use xlink:href="#DejaVuSans-74" transform="translate(194.384766 0)"/>
      <use xlink:href="#DejaVuSans-72" transform="translate(233.59375 0)"/>
      <use xlink:href="#DejaVuSans-61" transform="translate(274.707031 0)"/>
      <use xlink:href="#DejaVuSans-e7" transform="translate(335.986328 0)"/>
      <use xlink:href="#DejaVuSans-e3" transform="translate(390.966797 0)"/>
      <use xlink:href="#DejaVuSans-6f" transform="translate(452.246094 0)"/>
     </g>
    </g>
   </g>
  </g>
 </g>
 <defs>
  <clipPath id="p37a49d7e2e">
   <rect x="45.478125" y="22.5225" width="649.612315" height="254.8"/>
  </clipPath>
 </defs>
</svg>
