<?xml version="1.0" encoding="utf-8" standalone="no"?>
<!DOCTYPE svg PUBLIC "-//W3C//DTD SVG 1.1//EN"
  "http://www.w3.org/Graphics/SVG/1.1/DTD/svg11.dtd">
<svg xmlns:xlink="http://www.w3.org/1999/xlink" width="711.83419pt" height="315.27875pt" viewBox="0 0 711.83419 315.27875" xmlns="http://www.w3.org/2000/svg" version="1.1">
 <metadata>
  <rdf:RDF xmlns:dc="http://purl.org/dc/elements/1.1/" xmlns:cc="http://creativecommons.org/ns#" xmlns:rdf="http://www.w3.org/1999/02/22-rdf-syntax-ns#">
   <cc:Work>
    <dc:type rdf:resource="http://purl.org/dc/dcmitype/StillImage"/>
    <dc:date>2026-05-23T16:09:30.110085</dc:date>
    <dc:format>image/svg+xml</dc:format>
    <dc:creator>
     <cc:Agent>
      <dc:title>Matplotlib v3.10.3, https://matplotlib.org/</dc:title>
     </cc:Agent>
    </dc:creator>
   </cc:Work>
  </rdf:RDF>
 </metadata>
 <defs>
  <style type="text/css">*{stroke-linejoin: round; stroke-linecap: butt}</style>
 </defs>
 <g id="figure_1">
  <g id="patch_1">
   <path d="M 0 315.27875 
L 711.83419 315.27875 
L 711.83419 0 
L 0 0 
z
" style="fill: #ffffff"/>
  </g>
  <g id="axes_1">
   <g id="patch_2">
    <path d="M 45.478125 277.3225 
L 695.09044 277.3225 
L 695.09044 22.5225 
L 45.478125 22.5225 
z
" style="fill: #ffffff"/>
   </g>
   <g id="patch_3">
    <path d="M 97.44711 277.3225 
L 435.245514 277.3225 
L 435.245514 22.5225 
L 97.44711 22.5225 
z
" clip-path="url(#p36bd62843b)" style="fill: #008000; opacity: 0.07; stroke: #008000; stroke-linejoin: miter"/>
   </g>
   <g id="matplotlib.axis_1">
    <g id="xtick_1">
     <g id="line2d_1">
      <path d="M 45.478125 277.3225 
L 45.478125 22.5225 
" clip-path="url(#p36bd62843b)" style="fill: none; stroke: #b0b0b0; stroke-opacity: 0.3; stroke-width: 0.8; stroke-linecap: square"/>
     </g>
     <g id="line2d_2">
      <defs>
       <path id="m8d7641eba0" d="M 0 0 
L 0 3.5 
" style="stroke: #000000; stroke-width: 0.8"/>
      </defs>
      <g>
       <use xlink:href="#m8d7641eba0" x="45.478125" y="277.3225" style="stroke: #000000; stroke-width: 0.8"/>
      </g>
     </g>
     <g id="text_1">
      <!-- 0 -->
      <g transform="translate(42.296875 291.920937) scale(0.1 -0.1)">
       <defs>
        <path id="DejaVuSans-30" d="M 2034 4250 
Q 1547 4250 1301 3770 
Q 1056 3291 1056 2328 
Q 1056 1369 1301 889 
Q 1547 409 2034 409 
Q 2525 409 2770 889 
Q 3016 1369 3016 2328 
Q 3016 3291 2770 3770 
Q 2525 4250 2034 4250 
z
M 2034 4750 
Q 2819 4750 3233 4129 
Q 3647 3509 3647 2328 
Q 3647 1150 3233 529 
Q 2819 -91 2034 -91 
Q 1250 -91 836 529 
Q 422 1150 422 2328 
Q 422 3509 836 4129 
Q 1250 4750 2034 4750 
z
" transform="scale(0.015625)"/>
       </defs>
       <use xlink:href="#DejaVuSans-30"/>
      </g>
     </g>
    </g>
    <g id="xtick_2">
     <g id="line2d_3">
      <path d="M 175.400588 277.3225 
L 175.400588 22.5225 
" clip-path="url(#p36bd62843b)" style="fill: none; stroke: #b0b0b0; stroke-opacity: 0.3; stroke-width: 0.8; stroke-linecap: square"/>
     </g>
     <g id="line2d_4">
      <g>
       <use xlink:href="#m8d7641eba0" x="175.400588" y="277.3225" style="stroke: #000000; stroke-width: 0.8"/>
      </g>
     </g>
     <g id="text_2">
      <!-- 50 -->
      <g transform="translate(169.038088 291.920937) scale(0.1 -0.1)">
       <defs>
        <path id="DejaVuSans-35" d="M 691 4666 
L 3169 4666 
L 3169 4134 
L 1269 4134 
L 1269 2991 
Q 1406 3038 1543 3061 
Q 1681 3084 1819 3084 
Q 2600 3084 3056 2656 
Q 3513 2228 3513 1497 
Q 3513 744 3044 326 
Q 2575 -91 1722 -91 
Q 1428 -91 1123 -41 
Q 819 9 494 109 
L 494 744 
Q 775 591 1075 516 
Q 1375 441 1709 441 
Q 2250 441 2565 725 
Q 2881 1009 2881 1497 
Q 2881 1984 2565 2268 
Q 2250 2553 1709 2553 
Q 1456 2553 1204 2497 
Q 953 2441 691 2322 
L 691 4666 
z
" transform="scale(0.015625)"/>
       </defs>
       <use xlink:href="#DejaVuSans-35"/>
       <use xlink:href="#DejaVuSans-30" transform="translate(63.623047 0)"/>
      </g>
     </g>
    </g>
    <g id="xtick_3">
     <g id="line2d_5">
      <path d="M 305.323051 277.3225 
L 305.323051 22.5225 
" clip-path="url(#p36bd62843b)" style="fill: none; stroke: #b0b0b0; stroke-opacity: 0.3; stroke-width: 0.8; stroke-linecap: square"/>
     </g>
     <g id="line2d_6">
      <g>
       <use xlink:href="#m8d7641eba0" x="305.323051" y="277.3225" style="stroke: #000000; stroke-width: 0.8"/>
      </g>
     </g>
     <g id="text_3">
      <!-- 100 -->
      <g transform="translate(295.779301 291.920937) scale(0.1 -0.1)">
       <defs>
        <path id="DejaVuSans-31" d="M 794 531 
L 1825 531 
L 1825 4091 
L 703 3866 
L 703 4441 
L 1819 4666 
L 2450 4666 
L 2450 531 
L 3481 531 
L 3481 0 
L 794 0 
L 794 531 
z
" transform="scale(0.015625)"/>
       </defs>
       <use xlink:href="#DejaVuSans-31"/>
       <use xlink:href="#DejaVuSans-30" transform="translate(63.623047 0)"/>
       <use xlink:href="#DejaVuSans-30" transform="translate(127.246094 0)"/>
      </g>
     </g>
    </g>
    <g id="xtick_4">
     <g id="line2d_7">
      <path d="M 435.245514 277.3225 
L 435.245514 22.5225 
" clip-path="url(#p36bd62843b)" style="fill: none; stroke: #b0b0b0; stroke-opacity: 0.3; stroke-width: 0.8; stroke-linecap: square"/>
     </g>
     <g id="line2d_8">
      <g>
       <use xlink:href="#m8d7641eba0" x="435.245514" y="277.3225" style="stroke: #000000; stroke-width: 0.8"/>
      </g>
     </g>
     <g id="text_4">
      <!-- 150 -->
      <g transform="translate(425.701764 291.920937) scale(0.1 -0.1)">
       <use xlink:href="#DejaVuSans-31"/>
       <use xlink:href="#DejaVuSans-35" transform="translate(63.623047 0)"/>
       <use xlink:href="#DejaVuSans-30" transform="translate(127.246094 0)"/>
      </g>
     </g>
    </g>
    <g id="xtick_5">
     <g id="line2d_9">
      <path d="M 565.167977 277.3225 
L 565.167977 22.5225 
" clip-path="url(#p36bd62843b)" style="fill: none; stroke: #b0b0b0; stroke-opacity: 0.3; stroke-width: 0.8; stroke-linecap: square"/>
     </g>
     <g id="line2d_10">
      <g>
       <use xlink:href="#m8d7641eba0" x="565.167977" y="277.3225" style="stroke: #000000; stroke-width: 0.8"/>
      </g>
     </g>
     <g id="text_5">
      <!-- 200 -->
      <g transform="translate(555.624227 291.920937) scale(0.1 -0.1)">
       <defs>
        <path id="DejaVuSans-32" d="M 1228 531 
L 3431 531 
L 3431 0 
L 469 0 
L 469 531 
Q 828 903 1448 1529 
Q 2069 2156 2228 2338 
Q 2531 2678 2651 2914 
Q 2772 3150 2772 3378 
Q 2772 3750 2511 3984 
Q 2250 4219 1831 4219 
Q 1534 4219 1204 4116 
Q 875 4013 500 3803 
L 500 4441 
Q 881 4594 1212 4672 
Q 1544 4750 1819 4750 
Q 2544 4750 2975 4387 
Q 3406 4025 3406 3419 
Q 3406 3131 3298 2873 
Q 3191 2616 2906 2266 
Q 2828 2175 2409 1742 
Q 1991 1309 1228 531 
z
" transform="scale(0.015625)"/>
       </defs>
       <use xlink:href="#DejaVuSans-32"/>
       <use xlink:href="#DejaVuSans-30" transform="translate(63.623047 0)"/>
       <use xlink:href="#DejaVuSans-30" transform="translate(127.246094 0)"/>
      </g>
     </g>
    </g>
    <g id="xtick_6">
     <g id="line2d_11">
      <path d="M 695.09044 277.3225 
L 695.09044 22.5225 
" clip-path="url(#p36bd62843b)" style="fill: none; stroke: #b0b0b0; stroke-opacity: 0.3; stroke-width: 0.8; stroke-linecap: square"/>
     </g>
     <g id="line2d_12">
      <g>
       <use xlink:href="#m8d7641eba0" x="695.09044" y="277.3225" style="stroke: #000000; stroke-width: 0.8"/>
      </g>
     </g>
     <g id="text_6">
      <!-- 250 -->
      <g transform="translate(685.54669 291.920937) scale(0.1 -0.1)">
       <use xlink:href="#DejaVuSans-32"/>
       <use xlink:href="#DejaVuSans-35" transform="translate(63.623047 0)"/>
       <use xlink:href="#DejaVuSans-30" transform="translate(127.246094 0)"/>
      </g>
     </g>
    </g>
    <g id="text_7">
     <!-- Frequência (Hz) -->
     <g transform="translate(331.085845 305.999062) scale(0.1 -0.1)">
      <defs>
       <path id="DejaVuSans-46" d="M 628 4666 
L 3309 4666 
L 3309 4134 
L 1259 4134 
L 1259 2759 
L 3109 2759 
L 3109 2228 
L 1259 2228 
L 1259 0 
L 628 0 
L 628 4666 
z
" transform="scale(0.015625)"/>
       <path id="DejaVuSans-72" d="M 2631 2963 
Q 2534 3019 2420 3045 
Q 2306 3072 2169 3072 
Q 1681 3072 1420 2755 
Q 1159 2438 1159 1844 
L 1159 0 
L 581 0 
L 581 3500 
L 1159 3500 
L 1159 2956 
Q 1341 3275 1631 3429 
Q 1922 3584 2338 3584 
Q 2397 3584 2469 3576 
Q 2541 3569 2628 3553 
L 2631 2963 
z
" transform="scale(0.015625)"/>
       <path id="DejaVuSans-65" d="M 3597 1894 
L 3597 1613 
L 953 1613 
Q 991 1019 1311 708 
Q 1631 397 2203 397 
Q 2534 397 2845 478 
Q 3156 559 3463 722 
L 3463 178 
Q 3153 47 2828 -22 
Q 2503 -91 2169 -91 
Q 1331 -91 842 396 
Q 353 884 353 1716 
Q 353 2575 817 3079 
Q 1281 3584 2069 3584 
Q 2775 3584 3186 3129 
Q 3597 2675 3597 1894 
z
M 3022 2063 
Q 3016 2534 2758 2815 
Q 2500 3097 2075 3097 
Q 1594 3097 1305 2825 
Q 1016 2553 972 2059 
L 3022 2063 
z
" transform="scale(0.015625)"/>
       <path id="DejaVuSans-71" d="M 947 1747 
Q 947 1113 1208 752 
Q 1469 391 1925 391 
Q 2381 391 2643 752 
Q 2906 1113 2906 1747 
Q 2906 2381 2643 2742 
Q 2381 3103 1925 3103 
Q 1469 3103 1208 2742 
Q 947 2381 947 1747 
z
M 2906 525 
Q 2725 213 2448 61 
Q 2172 -91 1784 -91 
Q 1150 -91 751 415 
Q 353 922 353 1747 
Q 353 2572 751 3078 
Q 1150 3584 1784 3584 
Q 2172 3584 2448 3432 
Q 2725 3281 2906 2969 
L 2906 3500 
L 3481 3500 
L 3481 -1331 
L 2906 -1331 
L 2906 525 
z
" transform="scale(0.015625)"/>
       <path id="DejaVuSans-75" d="M 544 1381 
L 544 3500 
L 1119 3500 
L 1119 1403 
Q 1119 906 1312 657 
Q 1506 409 1894 409 
Q 2359 409 2629 706 
Q 2900 1003 2900 1516 
L 2900 3500 
L 3475 3500 
L 3475 0 
L 2900 0 
L 2900 538 
Q 2691 219 2414 64 
Q 2138 -91 1772 -91 
Q 1169 -91 856 284 
Q 544 659 544 1381 
z
M 1991 3584 
L 1991 3584 
z
" transform="scale(0.015625)"/>
       <path id="DejaVuSans-ea" d="M 3597 1894 
L 3597 1613 
L 953 1613 
Q 991 1019 1311 708 
Q 1631 397 2203 397 
Q 2534 397 2845 478 
Q 3156 559 3463 722 
L 3463 178 
Q 3153 47 2828 -22 
Q 2503 -91 2169 -91 
Q 1331 -91 842 396 
Q 353 884 353 1716 
Q 353 2575 817 3079 
Q 1281 3584 2069 3584 
Q 2775 3584 3186 3129 
Q 3597 2675 3597 1894 
z
M 3022 2063 
Q 3016 2534 2758 2815 
Q 2500 3097 2075 3097 
Q 1594 3097 1305 2825 
Q 1016 2553 972 2059 
L 3022 2063 
z
M 1801 5119 
L 2263 5119 
L 3029 3944 
L 2595 3944 
L 2032 4709 
L 1470 3944 
L 1035 3944 
L 1801 5119 
z
" transform="scale(0.015625)"/>
       <path id="DejaVuSans-6e" d="M 3513 2113 
L 3513 0 
L 2938 0 
L 2938 2094 
Q 2938 2591 2744 2837 
Q 2550 3084 2163 3084 
Q 1697 3084 1428 2787 
Q 1159 2491 1159 1978 
L 1159 0 
L 581 0 
L 581 3500 
L 1159 3500 
L 1159 2956 
Q 1366 3272 1645 3428 
Q 1925 3584 2291 3584 
Q 2894 3584 3203 3211 
Q 3513 2838 3513 2113 
z
" transform="scale(0.015625)"/>
       <path id="DejaVuSans-63" d="M 3122 3366 
L 3122 2828 
Q 2878 2963 2633 3030 
Q 2388 3097 2138 3097 
Q 1578 3097 1268 2742 
Q 959 2388 959 1747 
Q 959 1106 1268 751 
Q 1578 397 2138 397 
Q 2388 397 2633 464 
Q 2878 531 3122 666 
L 3122 134 
Q 2881 22 2623 -34 
Q 2366 -91 2075 -91 
Q 1284 -91 818 406 
Q 353 903 353 1747 
Q 353 2603 823 3093 
Q 1294 3584 2113 3584 
Q 2378 3584 2631 3529 
Q 2884 3475 3122 3366 
z
" transform="scale(0.015625)"/>
       <path id="DejaVuSans-69" d="M 603 3500 
L 1178 3500 
L 1178 0 
L 603 0 
L 603 3500 
z
M 603 4863 
L 1178 4863 
L 1178 4134 
L 603 4134 
L 603 4863 
z
" transform="scale(0.015625)"/>
       <path id="DejaVuSans-61" d="M 2194 1759 
Q 1497 1759 1228 1600 
Q 959 1441 959 1056 
Q 959 750 1161 570 
Q 1363 391 1709 391 
Q 2188 391 2477 730 
Q 2766 1069 2766 1631 
L 2766 1759 
L 2194 1759 
z
M 3341 1997 
L 3341 0 
L 2766 0 
L 2766 531 
Q 2569 213 2275 61 
Q 1981 -91 1556 -91 
Q 1019 -91 701 211 
Q 384 513 384 1019 
Q 384 1609 779 1909 
Q 1175 2209 1959 2209 
L 2766 2209 
L 2766 2266 
Q 2766 2663 2505 2880 
Q 2244 3097 1772 3097 
Q 1472 3097 1187 3025 
Q 903 2953 641 2809 
L 641 3341 
Q 956 3463 1253 3523 
Q 1550 3584 1831 3584 
Q 2591 3584 2966 3190 
Q 3341 2797 3341 1997 
z
" transform="scale(0.015625)"/>
       <path id="DejaVuSans-20" transform="scale(0.015625)"/>
       <path id="DejaVuSans-28" d="M 1984 4856 
Q 1566 4138 1362 3434 
Q 1159 2731 1159 2009 
Q 1159 1288 1364 580 
Q 1569 -128 1984 -844 
L 1484 -844 
Q 1016 -109 783 600 
Q 550 1309 550 2009 
Q 550 2706 781 3412 
Q 1013 4119 1484 4856 
L 1984 4856 
z
" transform="scale(0.015625)"/>
       <path id="DejaVuSans-48" d="M 628 4666 
L 1259 4666 
L 1259 2753 
L 3553 2753 
L 3553 4666 
L 4184 4666 
L 4184 0 
L 3553 0 
L 3553 2222 
L 1259 2222 
L 1259 0 
L 628 0 
L 628 4666 
z
" transform="scale(0.015625)"/>
       <path id="DejaVuSans-7a" d="M 353 3500 
L 3084 3500 
L 3084 2975 
L 922 459 
L 3084 459 
L 3084 0 
L 275 0 
L 275 525 
L 2438 3041 
L 353 3041 
L 353 3500 
z
" transform="scale(0.015625)"/>
       <path id="DejaVuSans-29" d="M 513 4856 
L 1013 4856 
Q 1481 4119 1714 3412 
Q 1947 2706 1947 2009 
Q 1947 1309 1714 600 
Q 1481 -109 1013 -844 
L 513 -844 
Q 928 -128 1133 580 
Q 1338 1288 1338 2009 
Q 1338 2731 1133 3434 
Q 928 4138 513 4856 
z
" transform="scale(0.015625)"/>
      </defs>
      <use xlink:href="#DejaVuSans-46"/>
      <use xlink:href="#DejaVuSans-72" transform="translate(50.269531 0)"/>
      <use xlink:href="#DejaVuSans-65" transform="translate(89.132812 0)"/>
      <use xlink:href="#DejaVuSans-71" transform="translate(150.65625 0)"/>
      <use xlink:href="#DejaVuSans-75" transform="translate(214.132812 0)"/>
      <use xlink:href="#DejaVuSans-ea" transform="translate(277.511719 0)"/>
      <use xlink:href="#DejaVuSans-6e" transform="translate(339.035156 0)"/>
      <use xlink:href="#DejaVuSans-63" transform="translate(402.414062 0)"/>
      <use xlink:href="#DejaVuSans-69" transform="translate(457.394531 0)"/>
      <use xlink:href="#DejaVuSans-61" transform="translate(485.177734 0)"/>
      <use xlink:href="#DejaVuSans-20" transform="translate(546.457031 0)"/>
      <use xlink:href="#DejaVuSans-28" transform="translate(578.244141 0)"/>
      <use xlink:href="#DejaVuSans-48" transform="translate(617.257812 0)"/>
      <use xlink:href="#DejaVuSans-7a" transform="translate(692.453125 0)"/>
      <use xlink:href="#DejaVuSans-29" transform="translate(744.943359 0)"/>
     </g>
    </g>
   </g>
   <g id="matplotlib.axis_2">
    <g id="ytick_1">
     <g id="line2d_13">
      <path d="M 45.478125 208.483664 
L 695.09044 208.483664 
" clip-path="url(#p36bd62843b)" style="fill: none; stroke: #b0b0b0; stroke-opacity: 0.3; stroke-width: 0.8; stroke-linecap: square"/>
     </g>
     <g id="line2d_14">
      <defs>
       <path id="m62fcab9230" d="M 0 0 
L -3.5 0 
" style="stroke: #000000; stroke-width: 0.8"/>
      </defs>
      <g>
       <use xlink:href="#m62fcab9230" x="45.478125" y="208.483664" style="stroke: #000000; stroke-width: 0.8"/>
      </g>
     </g>
     <g id="text_8">
      <!-- $\mathdefault{10^{4}}$ -->
      <g transform="translate(20.878125 212.282883) scale(0.1 -0.1)">
       <defs>
        <path id="DejaVuSans-34" d="M 2419 4116 
L 825 1625 
L 2419 1625 
L 2419 4116 
z
M 2253 4666 
L 3047 4666 
L 3047 1625 
L 3713 1625 
L 3713 1100 
L 3047 1100 
L 3047 0 
L 2419 0 
L 2419 1100 
L 313 1100 
L 313 1709 
L 2253 4666 
z
" transform="scale(0.015625)"/>
       </defs>
       <use xlink:href="#DejaVuSans-31" transform="translate(0 0.684375)"/>
       <use xlink:href="#DejaVuSans-30" transform="translate(63.623047 0.684375)"/>
       <use xlink:href="#DejaVuSans-34" transform="translate(128.203125 38.965625) scale(0.7)"/>
      </g>
     </g>
    </g>
    <g id="ytick_2">
     <g id="line2d_15">
      <path d="M 45.478125 110.060865 
L 695.09044 110.060865 
" clip-path="url(#p36bd62843b)" style="fill: none; stroke: #b0b0b0; stroke-opacity: 0.3; stroke-width: 0.8; stroke-linecap: square"/>
     </g>
     <g id="line2d_16">
      <g>
       <use xlink:href="#m62fcab9230" x="45.478125" y="110.060865" style="stroke: #000000; stroke-width: 0.8"/>
      </g>
     </g>
     <g id="text_9">
      <!-- $\mathdefault{10^{5}}$ -->
      <g transform="translate(20.878125 113.860084) scale(0.1 -0.1)">
       <use xlink:href="#DejaVuSans-31" transform="translate(0 0.684375)"/>
       <use xlink:href="#DejaVuSans-30" transform="translate(63.623047 0.684375)"/>
       <use xlink:href="#DejaVuSans-35" transform="translate(128.203125 38.965625) scale(0.7)"/>
      </g>
     </g>
    </g>
    <g id="ytick_3">
     <g id="line2d_17">
      <path d="M 45.478125 277.278249 
L 695.09044 277.278249 
" clip-path="url(#p36bd62843b)" style="fill: none; stroke: #b0b0b0; stroke-opacity: 0.3; stroke-width: 0.8; stroke-linecap: square"/>
     </g>
     <g id="line2d_18">
      <defs>
       <path id="m69912653ad" d="M 0 0 
L -2 0 
" style="stroke: #000000; stroke-width: 0.6"/>
      </defs>
      <g>
       <use xlink:href="#m69912653ad" x="45.478125" y="277.278249" style="stroke: #000000; stroke-width: 0.6"/>
      </g>
     </g>
    </g>
    <g id="ytick_4">
     <g id="line2d_19">
      <path d="M 45.478125 259.946854 
L 695.09044 259.946854 
" clip-path="url(#p36bd62843b)" style="fill: none; stroke: #b0b0b0; stroke-opacity: 0.3; stroke-width: 0.8; stroke-linecap: square"/>
     </g>
     <g id="line2d_20">
      <g>
       <use xlink:href="#m69912653ad" x="45.478125" y="259.946854" style="stroke: #000000; stroke-width: 0.6"/>
      </g>
     </g>
    </g>
    <g id="ytick_5">
     <g id="line2d_21">
      <path d="M 45.478125 247.650034 
L 695.09044 247.650034 
" clip-path="url(#p36bd62843b)" style="fill: none; stroke: #b0b0b0; stroke-opacity: 0.3; stroke-width: 0.8; stroke-linecap: square"/>
     </g>
     <g id="line2d_22">
      <g>
       <use xlink:href="#m69912653ad" x="45.478125" y="247.650034" style="stroke: #000000; stroke-width: 0.6"/>
      </g>
     </g>
    </g>
    <g id="ytick_6">
     <g id="line2d_23">
      <path d="M 45.478125 238.111879 
L 695.09044 238.111879 
" clip-path="url(#p36bd62843b)" style="fill: none; stroke: #b0b0b0; stroke-opacity: 0.3; stroke-width: 0.8; stroke-linecap: square"/>
     </g>
     <g id="line2d_24">
      <g>
       <use xlink:href="#m69912653ad" x="45.478125" y="238.111879" style="stroke: #000000; stroke-width: 0.6"/>
      </g>
     </g>
    </g>
    <g id="ytick_7">
     <g id="line2d_25">
      <path d="M 45.478125 230.318639 
L 695.09044 230.318639 
" clip-path="url(#p36bd62843b)" style="fill: none; stroke: #b0b0b0; stroke-opacity: 0.3; stroke-width: 0.8; stroke-linecap: square"/>
     </g>
     <g id="line2d_26">
      <g>
       <use xlink:href="#m69912653ad" x="45.478125" y="230.318639" style="stroke: #000000; stroke-width: 0.6"/>
      </g>
     </g>
    </g>
    <g id="ytick_8">
     <g id="line2d_27">
      <path d="M 45.478125 223.729549 
L 695.09044 223.729549 
" clip-path="url(#p36bd62843b)" style="fill: none; stroke: #b0b0b0; stroke-opacity: 0.3; stroke-width: 0.8; stroke-linecap: square"/>
     </g>
     <g id="line2d_28">
      <g>
       <use xlink:href="#m69912653ad" x="45.478125" y="223.729549" style="stroke: #000000; stroke-width: 0.6"/>
      </g>
     </g>
    </g>
    <g id="ytick_9">
     <g id="line2d_29">
      <path d="M 45.478125 218.021819 
L 695.09044 218.021819 
" clip-path="url(#p36bd62843b)" style="fill: none; stroke: #b0b0b0; stroke-opacity: 0.3; stroke-width: 0.8; stroke-linecap: square"/>
     </g>
     <g id="line2d_30">
      <g>
       <use xlink:href="#m69912653ad" x="45.478125" y="218.021819" style="stroke: #000000; stroke-width: 0.6"/>
      </g>
     </g>
    </g>
    <g id="ytick_10">
     <g id="line2d_31">
      <path d="M 45.478125 212.987245 
L 695.09044 212.987245 
" clip-path="url(#p36bd62843b)" style="fill: none; stroke: #b0b0b0; stroke-opacity: 0.3; stroke-width: 0.8; stroke-linecap: square"/>
     </g>
     <g id="line2d_32">
      <g>
       <use xlink:href="#m69912653ad" x="45.478125" y="212.987245" style="stroke: #000000; stroke-width: 0.6"/>
      </g>
     </g>
    </g>
    <g id="ytick_11">
     <g id="line2d_33">
      <path d="M 45.478125 178.85545 
L 695.09044 178.85545 
" clip-path="url(#p36bd62843b)" style="fill: none; stroke: #b0b0b0; stroke-opacity: 0.3; stroke-width: 0.8; stroke-linecap: square"/>
     </g>
     <g id="line2d_34">
      <g>
       <use xlink:href="#m69912653ad" x="45.478125" y="178.85545" style="stroke: #000000; stroke-width: 0.6"/>
      </g>
     </g>
    </g>
    <g id="ytick_12">
     <g id="line2d_35">
      <path d="M 45.478125 161.524055 
L 695.09044 161.524055 
" clip-path="url(#p36bd62843b)" style="fill: none; stroke: #b0b0b0; stroke-opacity: 0.3; stroke-width: 0.8; stroke-linecap: square"/>
     </g>
     <g id="line2d_36">
      <g>
       <use xlink:href="#m69912653ad" x="45.478125" y="161.524055" style="stroke: #000000; stroke-width: 0.6"/>
      </g>
     </g>
    </g>
    <g id="ytick_13">
     <g id="line2d_37">
      <path d="M 45.478125 149.227235 
L 695.09044 149.227235 
" clip-path="url(#p36bd62843b)" style="fill: none; stroke: #b0b0b0; stroke-opacity: 0.3; stroke-width: 0.8; stroke-linecap: square"/>
     </g>
     <g id="line2d_38">
      <g>
       <use xlink:href="#m69912653ad" x="45.478125" y="149.227235" style="stroke: #000000; stroke-width: 0.6"/>
      </g>
     </g>
    </g>
    <g id="ytick_14">
     <g id="line2d_39">
      <path d="M 45.478125 139.68908 
L 695.09044 139.68908 
" clip-path="url(#p36bd62843b)" style="fill: none; stroke: #b0b0b0; stroke-opacity: 0.3; stroke-width: 0.8; stroke-linecap: square"/>
     </g>
     <g id="line2d_40">
      <g>
       <use xlink:href="#m69912653ad" x="45.478125" y="139.68908" style="stroke: #000000; stroke-width: 0.6"/>
      </g>
     </g>
    </g>
    <g id="ytick_15">
     <g id="line2d_41">
      <path d="M 45.478125 131.89584 
L 695.09044 131.89584 
" clip-path="url(#p36bd62843b)" style="fill: none; stroke: #b0b0b0; stroke-opacity: 0.3; stroke-width: 0.8; stroke-linecap: square"/>
     </g>
     <g id="line2d_42">
      <g>
       <use xlink:href="#m69912653ad" x="45.478125" y="131.89584" style="stroke: #000000; stroke-width: 0.6"/>
      </g>
     </g>
    </g>
    <g id="ytick_16">
     <g id="line2d_43">
      <path d="M 45.478125 125.30675 
L 695.09044 125.30675 
" clip-path="url(#p36bd62843b)" style="fill: none; stroke: #b0b0b0; stroke-opacity: 0.3; stroke-width: 0.8; stroke-linecap: square"/>
     </g>
     <g id="line2d_44">
      <g>
       <use xlink:href="#m69912653ad" x="45.478125" y="125.30675" style="stroke: #000000; stroke-width: 0.6"/>
      </g>
     </g>
    </g>
    <g id="ytick_17">
     <g id="line2d_45">
      <path d="M 45.478125 119.59902 
L 695.09044 119.59902 
" clip-path="url(#p36bd62843b)" style="fill: none; stroke: #b0b0b0; stroke-opacity: 0.3; stroke-width: 0.8; stroke-linecap: square"/>
     </g>
     <g id="line2d_46">
      <g>
       <use xlink:href="#m69912653ad" x="45.478125" y="119.59902" style="stroke: #000000; stroke-width: 0.6"/>
      </g>
     </g>
    </g>
    <g id="ytick_18">
     <g id="line2d_47">
      <path d="M 45.478125 114.564445 
L 695.09044 114.564445 
" clip-path="url(#p36bd62843b)" style="fill: none; stroke: #b0b0b0; stroke-opacity: 0.3; stroke-width: 0.8; stroke-linecap: square"/>
     </g>
     <g id="line2d_48">
      <g>
       <use xlink:href="#m69912653ad" x="45.478125" y="114.564445" style="stroke: #000000; stroke-width: 0.6"/>
      </g>
     </g>
    </g>
    <g id="ytick_19">
     <g id="line2d_49">
      <path d="M 45.478125 80.43265 
L 695.09044 80.43265 
" clip-path="url(#p36bd62843b)" style="fill: none; stroke: #b0b0b0; stroke-opacity: 0.3; stroke-width: 0.8; stroke-linecap: square"/>
     </g>
     <g id="line2d_50">
      <g>
       <use xlink:href="#m69912653ad" x="45.478125" y="80.43265" style="stroke: #000000; stroke-width: 0.6"/>
      </g>
     </g>
    </g>
    <g id="ytick_20">
     <g id="line2d_51">
      <path d="M 45.478125 63.101256 
L 695.09044 63.101256 
" clip-path="url(#p36bd62843b)" style="fill: none; stroke: #b0b0b0; stroke-opacity: 0.3; stroke-width: 0.8; stroke-linecap: square"/>
     </g>
     <g id="line2d_52">
      <g>
       <use xlink:href="#m69912653ad" x="45.478125" y="63.101256" style="stroke: #000000; stroke-width: 0.6"/>
      </g>
     </g>
    </g>
    <g id="ytick_21">
     <g id="line2d_53">
      <path d="M 45.478125 50.804435 
L 695.09044 50.804435 
" clip-path="url(#p36bd62843b)" style="fill: none; stroke: #b0b0b0; stroke-opacity: 0.3; stroke-width: 0.8; stroke-linecap: square"/>
     </g>
     <g id="line2d_54">
      <g>
       <use xlink:href="#m69912653ad" x="45.478125" y="50.804435" style="stroke: #000000; stroke-width: 0.6"/>
      </g>
     </g>
    </g>
    <g id="ytick_22">
     <g id="line2d_55">
      <path d="M 45.478125 41.266281 
L 695.09044 41.266281 
" clip-path="url(#p36bd62843b)" style="fill: none; stroke: #b0b0b0; stroke-opacity: 0.3; stroke-width: 0.8; stroke-linecap: square"/>
     </g>
     <g id="line2d_56">
      <g>
       <use xlink:href="#m69912653ad" x="45.478125" y="41.266281" style="stroke: #000000; stroke-width: 0.6"/>
      </g>
     </g>
    </g>
    <g id="ytick_23">
     <g id="line2d_57">
      <path d="M 45.478125 33.473041 
L 695.09044 33.473041 
" clip-path="url(#p36bd62843b)" style="fill: none; stroke: #b0b0b0; stroke-opacity: 0.3; stroke-width: 0.8; stroke-linecap: square"/>
     </g>
     <g id="line2d_58">
      <g>
       <use xlink:href="#m69912653ad" x="45.478125" y="33.473041" style="stroke: #000000; stroke-width: 0.6"/>
      </g>
     </g>
    </g>
    <g id="ytick_24">
     <g id="line2d_59">
      <path d="M 45.478125 26.88395 
L 695.09044 26.88395 
" clip-path="url(#p36bd62843b)" style="fill: none; stroke: #b0b0b0; stroke-opacity: 0.3; stroke-width: 0.8; stroke-linecap: square"/>
     </g>
     <g id="line2d_60">
      <g>
       <use xlink:href="#m69912653ad" x="45.478125" y="26.88395" style="stroke: #000000; stroke-width: 0.6"/>
      </g>
     </g>
    </g>
    <g id="text_10">
     <!-- PSD (log) -->
     <g transform="translate(14.798438 173.074844) rotate(-90) scale(0.1 -0.1)">
      <defs>
       <path id="DejaVuSans-50" d="M 1259 4147 
L 1259 2394 
L 2053 2394 
Q 2494 2394 2734 2622 
Q 2975 2850 2975 3272 
Q 2975 3691 2734 3919 
Q 2494 4147 2053 4147 
L 1259 4147 
z
M 628 4666 
L 2053 4666 
Q 2838 4666 3239 4311 
Q 3641 3956 3641 3272 
Q 3641 2581 3239 2228 
Q 2838 1875 2053 1875 
L 1259 1875 
L 1259 0 
L 628 0 
L 628 4666 
z
" transform="scale(0.015625)"/>
       <path id="DejaVuSans-53" d="M 3425 4513 
L 3425 3897 
Q 3066 4069 2747 4153 
Q 2428 4238 2131 4238 
Q 1616 4238 1336 4038 
Q 1056 3838 1056 3469 
Q 1056 3159 1242 3001 
Q 1428 2844 1947 2747 
L 2328 2669 
Q 3034 2534 3370 2195 
Q 3706 1856 3706 1288 
Q 3706 609 3251 259 
Q 2797 -91 1919 -91 
Q 1588 -91 1214 -16 
Q 841 59 441 206 
L 441 856 
Q 825 641 1194 531 
Q 1563 422 1919 422 
Q 2459 422 2753 634 
Q 3047 847 3047 1241 
Q 3047 1584 2836 1778 
Q 2625 1972 2144 2069 
L 1759 2144 
Q 1053 2284 737 2584 
Q 422 2884 422 3419 
Q 422 4038 858 4394 
Q 1294 4750 2059 4750 
Q 2388 4750 2728 4690 
Q 3069 4631 3425 4513 
z
" transform="scale(0.015625)"/>
       <path id="DejaVuSans-44" d="M 1259 4147 
L 1259 519 
L 2022 519 
Q 2988 519 3436 956 
Q 3884 1394 3884 2338 
Q 3884 3275 3436 3711 
Q 2988 4147 2022 4147 
L 1259 4147 
z
M 628 4666 
L 1925 4666 
Q 3281 4666 3915 4102 
Q 4550 3538 4550 2338 
Q 4550 1131 3912 565 
Q 3275 0 1925 0 
L 628 0 
L 628 4666 
z
" transform="scale(0.015625)"/>
       <path id="DejaVuSans-6c" d="M 603 4863 
L 1178 4863 
L 1178 0 
L 603 0 
L 603 4863 
z
" transform="scale(0.015625)"/>
       <path id="DejaVuSans-6f" d="M 1959 3097 
Q 1497 3097 1228 2736 
Q 959 2375 959 1747 
Q 959 1119 1226 758 
Q 1494 397 1959 397 
Q 2419 397 2687 759 
Q 2956 1122 2956 1747 
Q 2956 2369 2687 2733 
Q 2419 3097 1959 3097 
z
M 1959 3584 
Q 2709 3584 3137 3096 
Q 3566 2609 3566 1747 
Q 3566 888 3137 398 
Q 2709 -91 1959 -91 
Q 1206 -91 779 398 
Q 353 888 353 1747 
Q 353 2609 779 3096 
Q 1206 3584 1959 3584 
z
" transform="scale(0.015625)"/>
       <path id="DejaVuSans-67" d="M 2906 1791 
Q 2906 2416 2648 2759 
Q 2391 3103 1925 3103 
Q 1463 3103 1205 2759 
Q 947 2416 947 1791 
Q 947 1169 1205 825 
Q 1463 481 1925 481 
Q 2391 481 2648 825 
Q 2906 1169 2906 1791 
z
M 3481 434 
Q 3481 -459 3084 -895 
Q 2688 -1331 1869 -1331 
Q 1566 -1331 1297 -1286 
Q 1028 -1241 775 -1147 
L 775 -588 
Q 1028 -725 1275 -790 
Q 1522 -856 1778 -856 
Q 2344 -856 2625 -561 
Q 2906 -266 2906 331 
L 2906 616 
Q 2728 306 2450 153 
Q 2172 0 1784 0 
Q 1141 0 747 490 
Q 353 981 353 1791 
Q 353 2603 747 3093 
Q 1141 3584 1784 3584 
Q 2172 3584 2450 3431 
Q 2728 3278 2906 2969 
L 2906 3500 
L 3481 3500 
L 3481 434 
z
" transform="scale(0.015625)"/>
      </defs>
      <use xlink:href="#DejaVuSans-50"/>
      <use xlink:href="#DejaVuSans-53" transform="translate(60.302734 0)"/>
      <use xlink:href="#DejaVuSans-44" transform="translate(123.779297 0)"/>
      <use xlink:href="#DejaVuSans-20" transform="translate(200.78125 0)"/>
      <use xlink:href="#DejaVuSans-28" transform="translate(232.568359 0)"/>
      <use xlink:href="#DejaVuSans-6c" transform="translate(271.582031 0)"/>
      <use xlink:href="#DejaVuSans-6f" transform="translate(299.365234 0)"/>
      <use xlink:href="#DejaVuSans-67" transform="translate(360.546875 0)"/>
      <use xlink:href="#DejaVuSans-29" transform="translate(424.023438 0)"/>
     </g>
    </g>
   </g>
   <g id="line2d_61">
    <path d="M 45.478125 186.962455 
L 48.015673 111.757503 
L 50.553221 188.073922 
L 53.090769 193.719004 
L 55.628317 201.236247 
L 58.165866 184.843328 
L 60.703414 165.675557 
L 63.240962 175.938959 
L 65.77851 168.062568 
L 68.316058 185.403408 
L 70.853606 169.18782 
L 73.391154 158.74896 
L 75.928702 169.820658 
L 78.46625 191.313776 
L 81.003798 205.512947 
L 83.541347 179.353007 
L 86.078895 177.823324 
L 88.616443 192.841103 
L 91.153991 183.351262 
L 93.691539 176.476844 
L 96.229087 179.337462 
L 98.766635 173.506183 
L 101.304183 174.727638 
L 103.841731 185.382065 
L 106.37928 180.70438 
L 108.916828 181.921957 
L 111.454376 169.6974 
L 113.991924 163.358461 
L 116.529472 169.467907 
L 119.06702 172.635381 
L 121.604568 168.058924 
L 124.142116 174.409919 
L 126.679664 184.975537 
L 129.217213 190.040204 
L 131.754761 188.175385 
L 134.292309 181.863022 
L 136.829857 194.530612 
L 139.367405 202.538165 
L 141.904953 182.881789 
L 144.442501 171.266392 
L 146.980049 175.815415 
L 149.517597 171.529401 
L 152.055145 161.788522 
L 154.592694 175.789558 
L 157.130242 194.205025 
L 159.66779 193.072517 
L 162.205338 168.471525 
L 164.742886 179.362583 
L 167.280434 194.380185 
L 172.35553 186.316323 
L 174.893078 198.021598 
L 177.430627 190.890809 
L 179.968175 179.410928 
L 182.505723 184.308011 
L 185.043271 190.092579 
L 187.580819 181.651286 
L 190.118367 184.875015 
L 192.655915 191.006382 
L 195.193463 185.616656 
L 197.731011 186.286222 
L 200.268559 195.727046 
L 202.806108 169.652084 
L 205.343656 173.126729 
L 207.881204 184.834628 
L 210.418752 193.576967 
L 212.9563 203.026141 
L 215.493848 210.416501 
L 218.031396 196.679951 
L 220.568944 193.590741 
L 225.644041 197.428466 
L 228.181589 200.683822 
L 230.719137 199.86466 
L 233.256685 197.252648 
L 235.794233 184.216601 
L 238.331781 186.483108 
L 240.869329 189.582351 
L 243.406877 194.537624 
L 245.944425 182.890024 
L 248.481974 194.934572 
L 251.019522 198.438904 
L 253.55707 189.139394 
L 256.094618 186.993991 
L 258.632166 198.156991 
L 261.169714 196.779528 
L 263.707262 192.809742 
L 266.24481 206.268321 
L 268.782358 198.071189 
L 271.319906 196.394072 
L 273.857455 198.025682 
L 276.395003 193.623204 
L 278.932551 190.366825 
L 281.470099 203.112688 
L 284.007647 202.206664 
L 286.545195 197.968433 
L 289.082743 195.970921 
L 291.620291 198.331993 
L 294.157839 187.400635 
L 296.695388 188.515553 
L 299.232936 195.827779 
L 301.770484 201.905509 
L 304.308032 204.821768 
L 306.84558 200.182971 
L 309.383128 202.833126 
L 311.920676 214.304159 
L 314.458224 193.701555 
L 316.995772 187.32774 
L 319.53332 196.273649 
L 322.070869 196.22658 
L 324.608417 175.839347 
L 327.145965 188.225421 
L 329.683513 191.681043 
L 332.221061 190.066669 
L 334.758609 201.150532 
L 337.296157 199.761706 
L 339.833705 203.595614 
L 342.371253 207.199042 
L 344.908802 212.919595 
L 347.44635 208.783186 
L 349.983898 199.327834 
L 352.521446 202.452076 
L 355.058994 196.521354 
L 357.596542 196.549112 
L 360.13409 216.616831 
L 362.671638 201.772346 
L 365.209186 198.241903 
L 367.746735 198.527886 
L 370.284283 202.881488 
L 372.821831 191.136002 
L 375.359379 186.98364 
L 377.896927 200.774304 
L 380.434475 204.63027 
L 382.972023 213.925705 
L 385.509571 208.36559 
L 388.047119 213.505752 
L 390.584667 211.428639 
L 393.122216 205.600105 
L 395.659764 192.283667 
L 398.197312 199.790662 
L 400.73486 222.283319 
L 403.272408 207.08291 
L 405.809956 199.040779 
L 408.347504 196.341712 
L 410.885052 189.624331 
L 413.4226 226.149929 
L 415.960149 203.391755 
L 418.497697 194.335447 
L 421.035245 199.890149 
L 423.572793 202.378069 
L 426.110341 193.971951 
L 428.647889 205.334718 
L 431.185437 205.608417 
L 433.722985 215.557546 
L 436.260533 212.325058 
L 438.798081 190.362008 
L 441.33563 205.787143 
L 443.873178 215.041101 
L 446.410726 208.868628 
L 448.948274 223.493378 
L 451.485822 209.721233 
L 454.02337 202.267639 
L 456.560918 205.658978 
L 459.098466 231.95466 
L 461.636014 193.526555 
L 464.173563 214.06884 
L 466.711111 209.94684 
L 469.248659 206.558599 
L 471.786207 199.480874 
L 474.323755 193.980331 
L 476.861303 215.682216 
L 479.398851 228.726166 
L 481.936399 225.681572 
L 484.473947 217.999545 
L 487.011496 209.123826 
L 489.549044 186.341875 
L 492.086592 205.597824 
L 494.62414 208.10453 
L 497.161688 217.306216 
L 499.699236 229.336536 
L 502.236784 225.49572 
L 504.774332 216.391531 
L 507.31188 231.488756 
L 509.849428 201.328652 
L 512.386977 201.72667 
L 514.924525 208.005142 
L 517.462073 217.869979 
L 519.999621 205.571043 
L 522.537169 228.389551 
L 525.074717 216.723635 
L 527.612265 223.624471 
L 530.149813 205.426279 
L 532.687361 226.905775 
L 535.22491 232.563311 
L 537.762458 218.443236 
L 540.300006 233.19271 
L 542.837554 228.646258 
L 545.375102 205.344853 
L 547.91265 210.164849 
L 550.450198 237.234621 
L 552.987746 206.400676 
L 555.525294 207.82914 
L 558.062842 235.663717 
L 560.600391 245.169495 
L 563.137939 237.577865 
L 565.675487 228.752312 
L 568.213035 229.1403 
L 570.750583 227.551893 
L 573.288131 233.808281 
L 575.825679 237.889269 
L 578.363227 218.785069 
L 580.900775 212.18576 
L 583.438324 219.983086 
L 585.975872 237.757671 
L 588.51342 240.503771 
L 591.050968 235.756059 
L 593.588516 221.203411 
L 598.663612 224.948144 
L 601.20116 212.885235 
L 603.738708 207.050075 
L 606.276257 233.194145 
L 608.813805 218.30804 
L 611.351353 244.936405 
L 613.888901 223.833165 
L 616.426449 220.001046 
L 618.963997 236.968525 
L 621.501545 197.950636 
L 624.039093 212.616974 
L 626.576641 251.374231 
L 629.114189 232.446868 
L 631.651738 218.985284 
L 634.189286 265.740682 
L 636.726834 243.407639 
L 639.264382 263.734831 
L 641.80193 232.404098 
L 644.339478 236.665178 
L 646.877026 229.390995 
L 649.414574 233.551118 
L 651.952122 231.71887 
L 654.489671 231.539291 
L 657.027219 241.226623 
L 662.102315 236.88222 
L 664.639863 239.364804 
L 667.177411 218.416474 
L 669.714959 232.828382 
L 672.252507 242.600523 
L 677.327603 210.204517 
L 679.865152 230.177443 
L 682.4027 209.508111 
L 684.940248 236.216392 
L 687.477796 231.983265 
L 690.015344 225.843107 
L 692.552892 214.131175 
L 695.09044 263.653678 
L 695.09044 263.653678 
" clip-path="url(#p36bd62843b)" style="fill: none; stroke: #1f77b4; stroke-width: 1.5; stroke-linecap: square"/>
   </g>
   <g id="line2d_62">
    <path d="M 45.478125 111.61021 
L 48.015673 34.104318 
L 50.553221 65.100468 
L 53.090769 85.939888 
L 55.628317 79.344844 
L 58.165866 78.434673 
L 60.703414 86.990179 
L 63.240962 83.116684 
L 65.77851 79.843089 
L 68.316058 75.529835 
L 70.853606 81.026697 
L 73.391154 87.412833 
L 75.928702 110.431815 
L 78.46625 85.455084 
L 81.003798 68.050201 
L 83.541347 74.242801 
L 86.078895 96.514832 
L 88.616443 90.3839 
L 91.153991 90.581478 
L 93.691539 90.182219 
L 96.229087 86.979624 
L 98.766635 81.840964 
L 101.304183 86.100313 
L 103.841731 92.227898 
L 106.37928 84.007847 
L 108.916828 97.594644 
L 111.454376 92.467908 
L 113.991924 87.741625 
L 116.529472 78.314305 
L 119.06702 80.434829 
L 121.604568 93.970525 
L 124.142116 89.827999 
L 126.679664 87.892555 
L 131.754761 100.855561 
L 134.292309 90.057173 
L 136.829857 84.97249 
L 139.367405 95.1189 
L 141.904953 69.559068 
L 144.442501 88.543536 
L 146.980049 87.754096 
L 149.517597 82.45622 
L 152.055145 82.507327 
L 154.592694 89.715734 
L 157.130242 97.397776 
L 159.66779 93.103196 
L 162.205338 84.962588 
L 164.742886 84.899085 
L 167.280434 106.019612 
L 169.817982 96.279058 
L 172.35553 107.379946 
L 174.893078 93.054903 
L 177.430627 97.30414 
L 179.968175 86.452952 
L 182.505723 88.666125 
L 185.043271 101.762233 
L 187.580819 112.841845 
L 190.118367 105.181243 
L 192.655915 88.83132 
L 195.193463 95.875018 
L 197.731011 84.651393 
L 200.268559 76.007924 
L 202.806108 85.822873 
L 205.343656 101.512834 
L 207.881204 102.665517 
L 210.418752 95.949647 
L 212.9563 80.358505 
L 215.493848 85.314398 
L 218.031396 87.608499 
L 220.568944 91.725948 
L 223.106492 77.569347 
L 225.644041 74.457423 
L 228.181589 88.978166 
L 230.719137 91.869322 
L 233.256685 99.42728 
L 235.794233 100.894307 
L 238.331781 94.807381 
L 240.869329 91.188764 
L 243.406877 98.519576 
L 245.944425 102.794834 
L 248.481974 89.105892 
L 251.019522 91.605694 
L 253.55707 103.124196 
L 256.094618 90.33875 
L 258.632166 86.469275 
L 261.169714 81.675567 
L 263.707262 83.14934 
L 266.24481 79.85166 
L 268.782358 98.05209 
L 271.319906 115.083539 
L 273.857455 110.649045 
L 276.395003 95.349428 
L 278.932551 103.210822 
L 281.470099 103.276519 
L 284.007647 79.809051 
L 286.545195 85.545208 
L 289.082743 86.581947 
L 291.620291 101.129815 
L 294.157839 92.306854 
L 296.695388 73.122659 
L 299.232936 96.223995 
L 301.770484 107.393369 
L 304.308032 110.192995 
L 306.84558 104.846344 
L 309.383128 107.667807 
L 311.920676 112.812232 
L 314.458224 114.196358 
L 316.995772 95.375852 
L 319.53332 91.79312 
L 322.070869 82.171639 
L 324.608417 97.707223 
L 327.145965 112.17464 
L 329.683513 90.091836 
L 332.221061 91.649553 
L 334.758609 93.495036 
L 337.296157 103.886965 
L 339.833705 111.288995 
L 342.371253 115.142883 
L 344.908802 98.215746 
L 347.44635 100.498216 
L 349.983898 96.646513 
L 352.521446 102.934772 
L 355.058994 103.440084 
L 357.596542 93.627604 
L 360.13409 88.535563 
L 362.671638 82.858427 
L 365.209186 105.576819 
L 367.746735 118.26705 
L 370.284283 108.527667 
L 372.821831 99.644059 
L 375.359379 96.210902 
L 377.896927 94.127729 
L 380.434475 95.806547 
L 382.972023 114.372844 
L 385.509571 118.756182 
L 388.047119 99.066688 
L 390.584667 101.810094 
L 393.122216 105.521701 
L 395.659764 91.98612 
L 398.197312 93.049532 
L 400.73486 90.407919 
L 403.272408 84.627623 
L 405.809956 100.165118 
L 408.347504 101.534876 
L 410.885052 106.629363 
L 413.4226 92.382021 
L 415.960149 97.925368 
L 418.497697 112.578605 
L 421.035245 102.635883 
L 423.572793 94.163506 
L 426.110341 89.348762 
L 428.647889 97.783807 
L 431.185437 89.609038 
L 433.722985 90.101762 
L 436.260533 104.243758 
L 438.798081 105.927462 
L 441.33563 107.822614 
L 443.873178 114.408443 
L 446.410726 112.906946 
L 448.948274 89.34221 
L 451.485822 77.458313 
L 454.02337 95.745375 
L 456.560918 96.959872 
L 459.098466 80.774065 
L 461.636014 114.99837 
L 464.173563 126.853009 
L 466.711111 113.379775 
L 469.248659 102.204339 
L 471.786207 100.828341 
L 474.323755 92.46097 
L 476.861303 107.466067 
L 479.398851 105.976268 
L 481.936399 116.448703 
L 484.473947 108.575408 
L 487.011496 113.490191 
L 489.549044 109.632 
L 492.086592 101.167388 
L 494.62414 102.620896 
L 497.161688 114.788981 
L 499.699236 130.337615 
L 502.236784 113.620116 
L 504.774332 117.224006 
L 507.31188 98.341123 
L 509.849428 94.089131 
L 512.386977 100.834648 
L 514.924525 90.017893 
L 517.462073 95.872933 
L 519.999621 91.579636 
L 522.537169 94.155223 
L 525.074717 105.044389 
L 527.612265 111.748706 
L 530.149813 108.823023 
L 532.687361 88.613692 
L 535.22491 96.525317 
L 537.762458 108.016411 
L 540.300006 108.472167 
L 542.837554 103.357254 
L 545.375102 92.275645 
L 547.91265 87.830092 
L 550.450198 90.503331 
L 552.987746 102.126319 
L 555.525294 108.798268 
L 558.062842 110.106351 
L 560.600391 115.125748 
L 563.137939 105.961238 
L 565.675487 100.462981 
L 568.213035 103.34061 
L 570.750583 137.596728 
L 573.288131 131.488301 
L 575.825679 111.059718 
L 578.363227 103.604301 
L 580.900775 90.604982 
L 583.438324 90.579747 
L 585.975872 101.632454 
L 588.51342 105.975114 
L 591.050968 105.837154 
L 593.588516 110.487712 
L 596.126064 102.423688 
L 598.663612 126.187402 
L 601.20116 133.255809 
L 603.738708 117.006463 
L 606.276257 101.620104 
L 608.813805 98.707558 
L 611.351353 99.988335 
L 613.888901 95.195328 
L 616.426449 80.520256 
L 618.963997 78.35611 
L 621.501545 96.060149 
L 624.039093 101.765208 
L 626.576641 103.594327 
L 629.114189 110.631894 
L 631.651738 98.128145 
L 634.189286 93.667611 
L 636.726834 106.933446 
L 639.264382 104.044309 
L 641.80193 91.062622 
L 644.339478 84.124668 
L 646.877026 87.402268 
L 649.414574 106.539492 
L 651.952122 122.476401 
L 654.489671 109.62679 
L 657.027219 104.961209 
L 659.564767 107.487759 
L 662.102315 110.461047 
L 664.639863 118.716163 
L 667.177411 103.907461 
L 669.714959 98.517653 
L 672.252507 113.351285 
L 674.790055 113.025649 
L 677.327603 102.481057 
L 679.865152 98.663161 
L 682.4027 119.363795 
L 684.940248 99.935436 
L 687.477796 82.665939 
L 690.015344 83.542928 
L 692.552892 96.744788 
L 695.09044 130.707678 
L 695.09044 130.707678 
" clip-path="url(#p36bd62843b)" style="fill: none; stroke: #d62728; stroke-width: 1.5; stroke-linecap: square"/>
   </g>
   <g id="line2d_63">
    <path d="M 201.385081 277.3225 
L 201.385081 22.5225 
" clip-path="url(#p36bd62843b)" style="fill: none; stroke-dasharray: 1.5,2.475; stroke-dashoffset: 0; stroke: #808080; stroke-opacity: 0.6; stroke-width: 1.5"/>
   </g>
   <g id="line2d_64">
    <path d="M 357.292036 277.3225 
L 357.292036 22.5225 
" clip-path="url(#p36bd62843b)" style="fill: none; stroke-dasharray: 1.5,2.475; stroke-dashoffset: 0; stroke: #808080; stroke-opacity: 0.6; stroke-width: 1.5"/>
   </g>
   <g id="line2d_65">
    <path d="M 513.198992 277.3225 
L 513.198992 22.5225 
" clip-path="url(#p36bd62843b)" style="fill: none; stroke-dasharray: 1.5,2.475; stroke-dashoffset: 0; stroke: #808080; stroke-opacity: 0.6; stroke-width: 1.5"/>
   </g>
   <g id="patch_4">
    <path d="M 45.478125 277.3225 
L 45.478125 22.5225 
" style="fill: none; stroke: #000000; stroke-width: 0.8; stroke-linejoin: miter; stroke-linecap: square"/>
   </g>
   <g id="patch_5">
    <path d="M 695.09044 277.3225 
L 695.09044 22.5225 
" style="fill: none; stroke: #000000; stroke-width: 0.8; stroke-linejoin: miter; stroke-linecap: square"/>
   </g>
   <g id="patch_6">
    <path d="M 45.478125 277.3225 
L 695.09044 277.3225 
" style="fill: none; stroke: #000000; stroke-width: 0.8; stroke-linejoin: miter; stroke-linecap: square"/>
   </g>
   <g id="patch_7">
    <path d="M 45.478125 22.5225 
L 695.09044 22.5225 
" style="fill: none; stroke: #000000; stroke-width: 0.8; stroke-linejoin: miter; stroke-linecap: square"/>
   </g>
   <g id="text_11">
    <!-- PSD (Welch, log) — visão suave dos espectros -->
    <g transform="translate(231.86897 16.5225) scale(0.12 -0.12)">
     <defs>
      <path id="DejaVuSans-57" d="M 213 4666 
L 850 4666 
L 1831 722 
L 2809 4666 
L 3519 4666 
L 4500 722 
L 5478 4666 
L 6119 4666 
L 4947 0 
L 4153 0 
L 3169 4050 
L 2175 0 
L 1381 0 
L 213 4666 
z
" transform="scale(0.015625)"/>
      <path id="DejaVuSans-68" d="M 3513 2113 
L 3513 0 
L 2938 0 
L 2938 2094 
Q 2938 2591 2744 2837 
Q 2550 3084 2163 3084 
Q 1697 3084 1428 2787 
Q 1159 2491 1159 1978 
L 1159 0 
L 581 0 
L 581 4863 
L 1159 4863 
L 1159 2956 
Q 1366 3272 1645 3428 
Q 1925 3584 2291 3584 
Q 2894 3584 3203 3211 
Q 3513 2838 3513 2113 
z
" transform="scale(0.015625)"/>
      <path id="DejaVuSans-2c" d="M 750 794 
L 1409 794 
L 1409 256 
L 897 -744 
L 494 -744 
L 750 256 
L 750 794 
z
" transform="scale(0.015625)"/>
      <path id="DejaVuSans-2014" d="M 313 1978 
L 6088 1978 
L 6088 1528 
L 313 1528 
L 313 1978 
z
" transform="scale(0.015625)"/>
      <path id="DejaVuSans-76" d="M 191 3500 
L 800 3500 
L 1894 563 
L 2988 3500 
L 3597 3500 
L 2284 0 
L 1503 0 
L 191 3500 
z
" transform="scale(0.015625)"/>
      <path id="DejaVuSans-73" d="M 2834 3397 
L 2834 2853 
Q 2591 2978 2328 3040 
Q 2066 3103 1784 3103 
Q 1356 3103 1142 2972 
Q 928 2841 928 2578 
Q 928 2378 1081 2264 
Q 1234 2150 1697 2047 
L 1894 2003 
Q 2506 1872 2764 1633 
Q 3022 1394 3022 966 
Q 3022 478 2636 193 
Q 2250 -91 1575 -91 
Q 1294 -91 989 -36 
Q 684 19 347 128 
L 347 722 
Q 666 556 975 473 
Q 1284 391 1588 391 
Q 1994 391 2212 530 
Q 2431 669 2431 922 
Q 2431 1156 2273 1281 
Q 2116 1406 1581 1522 
L 1381 1569 
Q 847 1681 609 1914 
Q 372 2147 372 2553 
Q 372 3047 722 3315 
Q 1072 3584 1716 3584 
Q 2034 3584 2315 3537 
Q 2597 3491 2834 3397 
z
" transform="scale(0.015625)"/>
      <path id="DejaVuSans-e3" d="M 2194 1759 
Q 1497 1759 1228 1600 
Q 959 1441 959 1056 
Q 959 750 1161 570 
Q 1363 391 1709 391 
Q 2188 391 2477 730 
Q 2766 1069 2766 1631 
L 2766 1759 
L 2194 1759 
z
M 3341 1997 
L 3341 0 
L 2766 0 
L 2766 531 
Q 2569 213 2275 61 
Q 1981 -91 1556 -91 
Q 1019 -91 701 211 
Q 384 513 384 1019 
Q 384 1609 779 1909 
Q 1175 2209 1959 2209 
L 2766 2209 
L 2766 2266 
Q 2766 2663 2505 2880 
Q 2244 3097 1772 3097 
Q 1472 3097 1187 3025 
Q 903 2953 641 2809 
L 641 3341 
Q 956 3463 1253 3523 
Q 1550 3584 1831 3584 
Q 2591 3584 2966 3190 
Q 3341 2797 3341 1997 
z
M 1844 4281 
L 1665 4453 
Q 1597 4516 1545 4545 
Q 1494 4575 1453 4575 
Q 1334 4575 1278 4461 
Q 1222 4347 1215 4091 
L 825 4091 
Q 831 4513 990 4742 
Q 1150 4972 1434 4972 
Q 1553 4972 1653 4928 
Q 1753 4884 1869 4781 
L 2047 4609 
Q 2115 4547 2167 4517 
Q 2219 4488 2259 4488 
Q 2378 4488 2434 4602 
Q 2490 4716 2497 4972 
L 2887 4972 
Q 2881 4550 2721 4320 
Q 2562 4091 2278 4091 
Q 2159 4091 2059 4134 
Q 1959 4178 1844 4281 
z
" transform="scale(0.015625)"/>
      <path id="DejaVuSans-64" d="M 2906 2969 
L 2906 4863 
L 3481 4863 
L 3481 0 
L 2906 0 
L 2906 525 
Q 2725 213 2448 61 
Q 2172 -91 1784 -91 
Q 1150 -91 751 415 
Q 353 922 353 1747 
Q 353 2572 751 3078 
Q 1150 3584 1784 3584 
Q 2172 3584 2448 3432 
Q 2725 3281 2906 2969 
z
M 947 1747 
Q 947 1113 1208 752 
Q 1469 391 1925 391 
Q 2381 391 2643 752 
Q 2906 1113 2906 1747 
Q 2906 2381 2643 2742 
Q 2381 3103 1925 3103 
Q 1469 3103 1208 2742 
Q 947 2381 947 1747 
z
" transform="scale(0.015625)"/>
      <path id="DejaVuSans-70" d="M 1159 525 
L 1159 -1331 
L 581 -1331 
L 581 3500 
L 1159 3500 
L 1159 2969 
Q 1341 3281 1617 3432 
Q 1894 3584 2278 3584 
Q 2916 3584 3314 3078 
Q 3713 2572 3713 1747 
Q 3713 922 3314 415 
Q 2916 -91 2278 -91 
Q 1894 -91 1617 61 
Q 1341 213 1159 525 
z
M 3116 1747 
Q 3116 2381 2855 2742 
Q 2594 3103 2138 3103 
Q 1681 3103 1420 2742 
Q 1159 2381 1159 1747 
Q 1159 1113 1420 752 
Q 1681 391 2138 391 
Q 2594 391 2855 752 
Q 3116 1113 3116 1747 
z
" transform="scale(0.015625)"/>
      <path id="DejaVuSans-74" d="M 1172 4494 
L 1172 3500 
L 2356 3500 
L 2356 3053 
L 1172 3053 
L 1172 1153 
Q 1172 725 1289 603 
Q 1406 481 1766 481 
L 2356 481 
L 2356 0 
L 1766 0 
Q 1100 0 847 248 
Q 594 497 594 1153 
L 594 3053 
L 172 3053 
L 172 3500 
L 594 3500 
L 594 4494 
L 1172 4494 
z
" transform="scale(0.015625)"/>
     </defs>
     <use xlink:href="#DejaVuSans-50"/>
     <use xlink:href="#DejaVuSans-53" transform="translate(60.302734 0)"/>
     <use xlink:href="#DejaVuSans-44" transform="translate(123.779297 0)"/>
     <use xlink:href="#DejaVuSans-20" transform="translate(200.78125 0)"/>
     <use xlink:href="#DejaVuSans-28" transform="translate(232.568359 0)"/>
     <use xlink:href="#DejaVuSans-57" transform="translate(271.582031 0)"/>
     <use xlink:href="#DejaVuSans-65" transform="translate(364.583984 0)"/>
     <use xlink:href="#DejaVuSans-6c" transform="translate(426.107422 0)"/>
     <use xlink:href="#DejaVuSans-63" transform="translate(453.890625 0)"/>
     <use xlink:href="#DejaVuSans-68" transform="translate(508.871094 0)"/>
     <use xlink:href="#DejaVuSans-2c" transform="translate(572.25 0)"/>
     <use xlink:href="#DejaVuSans-20" transform="translate(604.037109 0)"/>
     <use xlink:href="#DejaVuSans-6c" transform="translate(635.824219 0)"/>
     <use xlink:href="#DejaVuSans-6f" transform="translate(663.607422 0)"/>
     <use xlink:href="#DejaVuSans-67" transform="translate(724.789062 0)"/>
     <use xlink:href="#DejaVuSans-29" transform="translate(788.265625 0)"/>
     <use xlink:href="#DejaVuSans-20" transform="translate(827.279297 0)"/>
     <use xlink:href="#DejaVuSans-2014" transform="translate(859.066406 0)"/>
     <use xlink:href="#DejaVuSans-20" transform="translate(959.066406 0)"/>
     <use xlink:href="#DejaVuSans-76" transform="translate(990.853516 0)"/>
     <use xlink:href="#DejaVuSans-69" transform="translate(1050.033203 0)"/>
     <use xlink:href="#DejaVuSans-73" transform="translate(1077.816406 0)"/>
     <use xlink:href="#DejaVuSans-e3" transform="translate(1129.916016 0)"/>
     <use xlink:href="#DejaVuSans-6f" transform="translate(1191.195312 0)"/>
     <use xlink:href="#DejaVuSans-20" transform="translate(1252.376953 0)"/>
     <use xlink:href="#DejaVuSans-73" transform="translate(1284.164062 0)"/>
     <use xlink:href="#DejaVuSans-75" transform="translate(1336.263672 0)"/>
     <use xlink:href="#DejaVuSans-61" transform="translate(1399.642578 0)"/>
     <use xlink:href="#DejaVuSans-76" transform="translate(1460.921875 0)"/>
     <use xlink:href="#DejaVuSans-65" transform="translate(1520.101562 0)"/>
     <use xlink:href="#DejaVuSans-20" transform="translate(1581.625 0)"/>
     <use xlink:href="#DejaVuSans-64" transform="translate(1613.412109 0)"/>
     <use xlink:href="#DejaVuSans-6f" transform="translate(1676.888672 0)"/>
     <use xlink:href="#DejaVuSans-73" transform="translate(1738.070312 0)"/>
     <use xlink:href="#DejaVuSans-20" transform="translate(1790.169922 0)"/>
     <use xlink:href="#DejaVuSans-65" transform="translate(1821.957031 0)"/>
     <use xlink:href="#DejaVuSans-73" transform="translate(1883.480469 0)"/>
     <use xlink:href="#DejaVuSans-70" transform="translate(1935.580078 0)"/>
     <use xlink:href="#DejaVuSans-65" transform="translate(1999.056641 0)"/>
     <use xlink:href="#DejaVuSans-63" transform="translate(2060.580078 0)"/>
     <use xlink:href="#DejaVuSans-74" transform="translate(2115.560547 0)"/>
     <use xlink:href="#DejaVuSans-72" transform="translate(2154.769531 0)"/>
     <use xlink:href="#DejaVuSans-6f" transform="translate(2193.632812 0)"/>
     <use xlink:href="#DejaVuSans-73" transform="translate(2254.814453 0)"/>
    </g>
   </g>
   <g id="legend_1">
    <g id="patch_8">
     <path d="M 613.781065 56.16 
L 688.79044 56.16 
Q 690.59044 56.16 690.59044 54.36 
L 690.59044 28.8225 
Q 690.59044 27.0225 688.79044 27.0225 
L 613.781065 27.0225 
Q 611.981065 27.0225 611.981065 28.8225 
L 611.981065 54.36 
Q 611.981065 56.16 613.781065 56.16 
z
" style="fill: #ffffff; opacity: 0.8; stroke: #cccccc; stroke-linejoin: miter"/>
    </g>
    <g id="line2d_66">
     <path d="M 615.581065 34.311094 
L 624.581065 34.311094 
L 633.581065 34.311094 
" style="fill: none; stroke: #1f77b4; stroke-width: 1.5; stroke-linecap: square"/>
    </g>
    <g id="text_12">
     <!-- Repouso -->
     <g transform="translate(640.781065 37.461094) scale(0.09 -0.09)">
      <defs>
       <path id="DejaVuSans-52" d="M 2841 2188 
Q 3044 2119 3236 1894 
Q 3428 1669 3622 1275 
L 4263 0 
L 3584 0 
L 2988 1197 
Q 2756 1666 2539 1819 
Q 2322 1972 1947 1972 
L 1259 1972 
L 1259 0 
L 628 0 
L 628 4666 
L 2053 4666 
Q 2853 4666 3247 4331 
Q 3641 3997 3641 3322 
Q 3641 2881 3436 2590 
Q 3231 2300 2841 2188 
z
M 1259 4147 
L 1259 2491 
L 2053 2491 
Q 2509 2491 2742 2702 
Q 2975 2913 2975 3322 
Q 2975 3731 2742 3939 
Q 2509 4147 2053 4147 
L 1259 4147 
z
" transform="scale(0.015625)"/>
      </defs>
      <use xlink:href="#DejaVuSans-52"/>
      <use xlink:href="#DejaVuSans-65" transform="translate(64.982422 0)"/>
      <use xlink:href="#DejaVuSans-70" transform="translate(126.505859 0)"/>
      <use xlink:href="#DejaVuSans-6f" transform="translate(189.982422 0)"/>
      <use xlink:href="#DejaVuSans-75" transform="translate(251.164062 0)"/>
      <use xlink:href="#DejaVuSans-73" transform="translate(314.542969 0)"/>
      <use xlink:href="#DejaVuSans-6f" transform="translate(366.642578 0)"/>
     </g>
    </g>
    <g id="line2d_67">
     <path d="M 615.581065 47.538281 
L 624.581065 47.538281 
L 633.581065 47.538281 
" style="fill: none; stroke: #d62728; stroke-width: 1.5; stroke-linecap: square"/>
    </g>
    <g id="text_13">
     <!-- Contração -->
     <g transform="translate(640.781065 50.688281) scale(0.09 -0.09)">
      <defs>
       <path id="DejaVuSans-43" d="M 4122 4306 
L 4122 3641 
Q 3803 3938 3442 4084 
Q 3081 4231 2675 4231 
Q 1875 4231 1450 3742 
Q 1025 3253 1025 2328 
Q 1025 1406 1450 917 
Q 1875 428 2675 428 
Q 3081 428 3442 575 
Q 3803 722 4122 1019 
L 4122 359 
Q 3791 134 3420 21 
Q 3050 -91 2638 -91 
Q 1578 -91 968 557 
Q 359 1206 359 2328 
Q 359 3453 968 4101 
Q 1578 4750 2638 4750 
Q 3056 4750 3426 4639 
Q 3797 4528 4122 4306 
z
" transform="scale(0.015625)"/>
       <path id="DejaVuSans-e7" d="M 3122 3366 
L 3122 2828 
Q 2878 2963 2633 3030 
Q 2388 3097 2138 3097 
Q 1578 3097 1268 2742 
Q 959 2388 959 1747 
Q 959 1106 1268 751 
Q 1578 397 2138 397 
Q 2388 397 2633 464 
Q 2878 531 3122 666 
L 3122 134 
Q 2881 22 2623 -34 
Q 2366 -91 2075 -91 
Q 1284 -91 818 406 
Q 353 903 353 1747 
Q 353 2603 823 3093 
Q 1294 3584 2113 3584 
Q 2378 3584 2631 3529 
Q 2884 3475 3122 3366 
z
M 2311 0 
Q 2482 -194 2566 -358 
Q 2651 -522 2651 -672 
Q 2651 -950 2463 -1092 
Q 2276 -1234 1907 -1234 
Q 1764 -1234 1628 -1215 
Q 1492 -1197 1357 -1159 
L 1357 -750 
Q 1464 -803 1579 -826 
Q 1695 -850 1842 -850 
Q 2026 -850 2120 -775 
Q 2214 -700 2214 -556 
Q 2214 -463 2146 -327 
Q 2079 -191 1939 0 
L 2311 0 
z
" transform="scale(0.015625)"/>
      </defs>
      <use xlink:href="#DejaVuSans-43"/>
      <use xlink:href="#DejaVuSans-6f" transform="translate(69.824219 0)"/>
      <use xlink:href="#DejaVuSans-6e" transform="translate(131.005859 0)"/>
      <use xlink:href="#DejaVuSans-74" transform="translate(194.384766 0)"/>
      <use xlink:href="#DejaVuSans-72" transform="translate(233.59375 0)"/>
      <use xlink:href="#DejaVuSans-61" transform="translate(274.707031 0)"/>
      <use xlink:href="#DejaVuSans-e7" transform="translate(335.986328 0)"/>
      <use xlink:href="#DejaVuSans-e3" transform="translate(390.966797 0)"/>
      <use xlink:href="#DejaVuSans-6f" transform="translate(452.246094 0)"/>
     </g>
    </g>
   </g>
  </g>
 </g>
 <defs>
  <clipPath id="p36bd62843b">
   <rect x="45.478125" y="22.5225" width="649.612315" height="254.8"/>
  </clipPath>
 </defs>
</svg>
